<?xml version="1.0" encoding="UTF-8"?>
<svg width="16px" height="19px" viewBox="0 0 16 19" version="1.1" xmlns="http://www.w3.org/2000/svg" xmlns:xlink="http://www.w3.org/1999/xlink">
    <!-- Generator: Sketch 52.6 (67491) - http://www.bohemiancoding.com/sketch -->
    <title>apple</title>
    <desc>Created with Sketch.</desc>
    <g id="Page-1" stroke="none" stroke-width="1" fill="none" fill-rule="evenodd">
        <g id="details-page" transform="translate(-528.000000, -33.000000)" fill="#FFFFFF">
            <g id="Group-3" transform="translate(-1.000000, 0.000000)">
                <g id="top">
                    <g id="top-section" transform="translate(71.000000, 21.000000)">
                        <g id="top">
                            <g id="header">
                                <g id="nav-left">
                                    <g id="apple" transform="translate(458.000000, 12.000000)">
                                        <path d="M10.6013516,3.02392723 C11.2115434,2.2402911 11.6732785,1.13178947 11.5061187,0 C10.5090046,0.0686991553 9.34356164,0.70445744 8.66440183,1.53234048 C8.04485845,2.28337362 7.53519635,3.3988616 7.73391781,4.48291098 C8.823379,4.51667836 9.94907763,3.86578298 10.6013516,3.02392723 Z" id="Path"></path>
                                        <path d="M15.4466484,6.25045874 C14.4892785,5.05462768 13.1438174,4.36064977 11.8731689,4.36064977 C10.195726,4.36064977 9.48617352,5.16058739 8.32073059,5.16058739 C7.11905023,5.16058739 6.20610046,4.36297856 4.75543379,4.36297856 C3.33048402,4.36297856 1.81318721,5.23045094 0.851141553,6.71388694 C-0.501333333,8.80280702 -0.269881279,12.7303028 1.92189954,16.0756023 C2.70626484,17.2725978 3.75364384,18.6186355 5.12365297,18.6302794 C6.34286758,18.6419233 6.68653881,17.8513008 8.33826484,17.8431501 C9.98999087,17.833835 10.3032694,18.6407589 11.5201461,18.6279506 C12.8913242,18.6174711 13.9959817,17.1258843 14.780347,15.9288889 C15.3426119,15.0707316 15.5518539,14.638742 15.9878721,13.6699675 C12.8165114,12.4671501 12.3080183,7.97492398 15.4466484,6.25045874 Z" id="Path"></path>
                                    </g>
                                </g>
                            </g>
                        </g>
                    </g>
                </g>
            </g>
        </g>
    </g>
</svg>