<?xml version="1.0" encoding="UTF-8"?>
<svg width="13px" height="22px" viewBox="0 0 13 22" version="1.1" xmlns="http://www.w3.org/2000/svg" xmlns:xlink="http://www.w3.org/1999/xlink">
    <!-- Generator: Sketch 52.6 (67491) - http://www.bohemiancoding.com/sketch -->
    <title>Arrow-right - simple-line-icons</title>
    <desc>Created with Sketch.</desc>
    <g id="Page-1" stroke="none" stroke-width="1" fill="none" fill-rule="evenodd">
        <g id="search-results" transform="translate(-1327.000000, -1929.000000)" fill="#712BEE" stroke="#712BEE">
            <g id="Group-3" transform="translate(-1.000000, 0.000000)">
                <g id="section-cat" transform="translate(1.000000, 1625.000000)">
                    <g id="Next-Btn" transform="translate(1313.000000, 295.000000)">
                        <path d="M15.684262,30 C15.5930266,30 15.5050509,29.9837082 15.4203324,29.9511241 C15.3356138,29.9185401 15.2606716,29.8696647 15.1955034,29.8044966 C15.0651672,29.6741603 15,29.5177591 15,29.3352884 C15,29.1528176 15.0651672,28.9964164 15.1955034,28.8660802 L24.1300098,19.9315738 L15.3323558,11.1534702 C15.2020196,11.0231339 15.1368524,10.8634744 15.1368524,10.6744868 C15.1368524,10.4854992 15.2020196,10.3258397 15.3323558,10.1955034 C15.4626921,10.0651672 15.6223516,10 15.8113392,10 C16.0003268,10 16.1599863,10.0651672 16.2903226,10.1955034 L25.5376344,19.4623656 C25.6679707,19.5927019 25.7331378,19.749103 25.7331378,19.9315738 C25.7331378,20.1140446 25.6679707,20.2704457 25.5376344,20.400782 L16.1534702,29.8044966 C16.0883021,29.8696647 16.0133598,29.9185401 15.9286413,29.9511241 C15.8439227,29.9837082 15.7624637,30 15.684262,30 Z" id="Arrow-right---simple-line-icons"></path>
                    </g>
                </g>
            </g>
        </g>
    </g>
</svg>