<?xml version="1.0" encoding="UTF-8"?>
<svg width="22px" height="22px" viewBox="0 0 22 22" version="1.1" xmlns="http://www.w3.org/2000/svg" xmlns:xlink="http://www.w3.org/1999/xlink">
    <!-- Generator: Sketch 52.6 (67491) - http://www.bohemiancoding.com/sketch -->
    <title>step-icon-bank</title>
    <desc>Created with Sketch.</desc>
    <g id="Page-1" stroke="none" stroke-width="1" fill="none" fill-rule="evenodd">
        <g id="payment&amp;checkout" transform="translate(-129.000000, -271.000000)" fill="#5E60FF">
            <g id="Group-3" transform="translate(-1.000000, 0.000000)">
                <g id="Group-Copy-4" transform="translate(119.000000, 165.000000)">
                    <g id="Group-4" transform="translate(1.000000, 60.000000)">
                        <g id="Group-2" transform="translate(0.000000, 37.000000)">
                            <g id="step-icon-bank" transform="translate(10.000000, 9.000000)">
                                <path d="M20.5539583,19.4957681 L0.979,19.4957681 C0.438166667,19.4957681 0,19.9320702 0,20.4710585 C0,21.009134 0.438166667,21.4454362 0.979,21.4454362 L20.5535,21.4454362 C21.0943333,21.4454362 21.5325,21.009134 21.5325,20.4710585 C21.5320417,19.9320702 21.093875,19.4957681 20.5539583,19.4957681 Z" id="Path"></path>
                                <path d="M2.20229167,16.9614734 C1.66145833,16.9614734 1.22329167,17.3977755 1.22329167,17.9363074 C1.22329167,18.4748394 1.66145833,18.9115979 2.20229167,18.9115979 L19.3302083,18.9115979 C19.8710417,18.9115979 20.3092083,18.4748394 20.3092083,17.9363074 C20.3092083,17.3977755 19.8710417,16.9614734 19.3302083,16.9614734 L19.0859167,16.9614734 L19.0859167,8.18979255 L19.3302083,8.18979255 C19.6010833,8.18979255 19.81925,7.97164149 19.81925,7.70283191 C19.81925,7.43402234 19.6001667,7.21587128 19.3302083,7.21587128 L2.20229167,7.21587128 C1.931875,7.21587128 1.71325,7.43402234 1.71325,7.70283191 C1.71325,7.97164149 1.93233333,8.18979255 2.20229167,8.18979255 L2.44704167,8.18979255 L2.44704167,16.961017 L2.20229167,16.961017 L2.20229167,16.9614734 Z M17.1279167,8.18979255 L17.1279167,16.961017 L14.1918333,16.961017 L14.1918333,8.18979255 L17.1279167,8.18979255 Z M12.2338333,8.18979255 L12.2338333,16.961017 L9.29775,16.961017 L9.29775,8.18979255 L12.2338333,8.18979255 Z M4.404125,8.18979255 L7.34020833,8.18979255 L7.34020833,16.961017 L4.404125,16.961017 L4.404125,8.18979255 Z" id="Shape" fill-rule="nonzero"></path>
                                <path d="M0.979,6.33961596 L20.5535,6.33961596 C20.5567083,6.33961596 20.560375,6.33961596 20.563125,6.33961596 C21.1044167,6.33961596 21.542125,5.90331383 21.542125,5.36478191 C21.542125,4.93669468 21.2652917,4.57387021 20.88075,4.44243191 L11.1686667,0.0908202128 C10.913375,-0.0232755319 10.6214167,-0.0232755319 10.3656667,0.0908202128 L0.5775,4.47620426 C0.156291667,4.66514681 -0.0751666667,5.12061702 0.022,5.56969787 C0.118708333,6.01877872 0.517458333,6.33961596 0.979,6.33961596 Z" id="Path"></path>
                            </g>
                        </g>
                    </g>
                </g>
            </g>
        </g>
    </g>
</svg>