<?xml version="1.0" encoding="UTF-8"?>
<svg width="18px" height="19px" viewBox="0 0 18 19" version="1.1" xmlns="http://www.w3.org/2000/svg" xmlns:xlink="http://www.w3.org/1999/xlink">
    <!-- Generator: Sketch 52.6 (67491) - http://www.bohemiancoding.com/sketch -->
    <title>Shape</title>
    <desc>Created with Sketch.</desc>
    <g id="Page-1" stroke="none" stroke-width="1" fill="none" fill-rule="evenodd">
        <g id="search-results" transform="translate(-325.000000, -230.000000)" fill="#5E60FF" fill-rule="nonzero">
            <g id="Group-3" transform="translate(-1.000000, 0.000000)">
                <g id="hero">
                    <g id="filters" transform="translate(121.000000, 218.000000)">
                        <g id="filter-copy-3" transform="translate(173.000000, 0.000000)">
                            <path d="M33.4589438,21.8188806 L34.7801873,21.8188806 C35.0591165,25.1763936 37.5988401,27.8499687 40.7551441,28.1453055 L40.7551441,29.5442692 C40.7551441,29.8862381 41.0193928,30.1815749 41.3570439,30.1815749 C41.6800146,30.1815749 41.9589438,29.9017822 41.9589438,29.5442692 L41.9589438,28.1453055 C45.1299282,27.8499687 47.6549714,25.1608495 47.9339006,21.8188806 L49.2551441,21.8188806 C49.5781147,21.8188806 49.8570439,21.5390879 49.8570439,21.1815749 C49.8570439,20.839606 49.5927952,20.5442692 49.2551441,20.5442692 L47.9339006,20.5442692 C47.6549714,17.1867563 45.1152477,14.5131811 41.9589438,14.2178443 L41.9589438,12.8188806 C41.9589438,12.4769117 41.6946951,12.1815749 41.3570439,12.1815749 C41.0340733,12.1815749 40.7551441,12.4613677 40.7551441,12.8188806 L40.7551441,14.2178443 C37.5841597,14.5131811 35.0591165,17.2023003 34.7801873,20.5442692 L33.4589438,20.5442692 C33.1212926,20.5442692 32.8570439,20.824062 32.8570439,21.1815749 C32.8570439,21.5390879 33.1359731,21.8188806 33.4589438,21.8188806 L33.4589438,21.8188806 Z M38.4062667,20.5442692 L35.9839869,20.5442692 C36.2629161,17.8862381 38.2594619,15.7722485 40.7551441,15.4924557 L40.7551441,18.0572226 C40.7551441,18.3991915 41.0193928,18.6945283 41.3570439,18.6945283 C41.6800146,18.6945283 41.9589438,18.4147355 41.9589438,18.0572226 L41.9589438,15.4924557 C44.4693065,15.7877925 46.4658522,17.9017822 46.7301009,20.5442692 L44.3078211,20.5442692 C43.9848505,20.5442692 43.7059213,20.824062 43.7059213,21.1815749 C43.7059213,21.5235438 43.97017,21.8188806 44.3078211,21.8188806 L46.7301009,21.8188806 C46.4511717,24.4769117 44.454626,26.5909013 41.9589438,26.8706941 L41.9589438,24.3059272 C41.9589438,23.9639583 41.6946951,23.6686215 41.3570439,23.6686215 C41.0340733,23.6686215 40.7551441,23.9484143 40.7551441,24.3059272 L40.7551441,26.8706941 C38.2447814,26.5753573 36.2482356,24.4613677 35.9839869,21.8188806 L38.4062667,21.8188806 C38.7292374,21.8188806 39.0081666,21.5390879 39.0081666,21.1815749 C39.0081666,20.839606 38.7292374,20.5442692 38.4062667,20.5442692 L38.4062667,20.5442692 Z" id="Shape" transform="translate(41.357044, 21.181575) rotate(-1.000000) translate(-41.357044, -21.181575) "></path>
                        </g>
                    </g>
                </g>
            </g>
        </g>
    </g>
</svg>