<?xml version="1.0" encoding="UTF-8"?>
<svg width="22px" height="22px" viewBox="0 0 22 22" version="1.1" xmlns="http://www.w3.org/2000/svg" xmlns:xlink="http://www.w3.org/1999/xlink">
    <!-- Generator: Sketch 52.6 (67491) - http://www.bohemiancoding.com/sketch -->
    <title>plus</title>
    <desc>Created with Sketch.</desc>
    <g id="Page-1" stroke="none" stroke-width="1" fill="none" fill-rule="evenodd">
        <g id="inbox" transform="translate(-1277.000000, -833.000000)" fill="#5E60FF">
            <g id="Group-3" transform="translate(-1.000000, 0.000000)">
                <g id="row-copy-4" transform="translate(121.000000, 817.000000)">
                    <g id="plus" transform="translate(1157.000000, 16.000000)">
                        <path d="M11,0 C4.93423047,0 0,4.93423047 0,11 C0,17.0657695 4.93423047,22 11,22 C17.0657695,22 22,17.0649102 22,11 C22,4.93508984 17.0657695,0 11,0 Z M11,20.2959023 C5.87490234,20.2959023 1.70409766,16.125957 1.70409766,11 C1.70409766,5.87404297 5.87490234,1.70409766 11,1.70409766 C16.1250977,1.70409766 20.2959023,5.87404297 20.2959023,11 C20.2959023,16.125957 16.125957,20.2959023 11,20.2959023 Z" id="Shape" fill-rule="nonzero"></path>
                        <path d="M15.2602656,10.0712734 L11.8520703,10.0712734 L10.1479297,10.0712734 L6.73973438,10.0712734 C6.26853906,10.0712734 5.88766406,10.4530078 5.88766406,10.9233438 C5.88766406,11.3936797 6.26853906,11.7754141 6.73973438,11.7754141 L10.1479297,11.7754141 L11.8520703,11.7754141 L15.2602656,11.7754141 C15.7314609,11.7754141 16.1123359,11.3936797 16.1123359,10.9233438 C16.1123359,10.4530078 15.7314609,10.0712734 15.2602656,10.0712734 Z" id="Path"></path>
                    </g>
                </g>
            </g>
        </g>
    </g>
</svg>