<?xml version="1.0" encoding="UTF-8"?>
<svg width="11px" height="11px" viewBox="0 0 11 11" version="1.1" xmlns="http://www.w3.org/2000/svg" xmlns:xlink="http://www.w3.org/1999/xlink">
    <!-- Generator: Sketch 52.6 (67491) - http://www.bohemiancoding.com/sketch -->
    <title>icon-location</title>
    <desc>Created with Sketch.</desc>
    <g id="Page-1" stroke="none" stroke-width="1" fill="none" fill-rule="evenodd">
        <g id="search-results" transform="translate(-140.000000, -851.000000)" fill="#5E60FF" fill-rule="nonzero">
            <g id="Group-3" transform="translate(-1.000000, 0.000000)">
                <g id="row1" transform="translate(120.000000, 337.000000)">
                    <g id="s2">
                        <g id="Group" transform="translate(1.000000, 71.000000)">
                            <g id="Group-6">
                                <g id="Card-rec-Copy-7">
                                    <g id="Group-7" transform="translate(19.000000, 322.000000)">
                                        <g id="12:00--13:30-(GMT),-2" transform="translate(1.000000, 115.000000)">
                                            <g id="location">
                                                <g id="icon-location" transform="translate(0.843882, 6.000000)">
                                                    <path d="M4.80398252,0 C2.16271573,0 0.013898136,1.78711318 0.013898136,3.9837615 C0.013898136,6.70987073 4.30055441,10.7119584 4.4830626,10.8809975 C4.65448855,11.0397885 4.95378649,11.0395092 5.12490245,10.8809975 C5.30741064,10.7119584 9.59406691,6.70987073 9.59406691,3.9837615 C9.59401525,1.78711318 7.44522349,0 4.80398252,0 Z M4.80398252,10.0918334 C3.36130242,8.66660305 0.876504433,5.85474968 0.876504433,3.98380447 C0.876504433,2.18268348 2.63834783,0.717406211 4.80398252,0.717406211 C6.96961722,0.717406211 8.73146062,2.18268348 8.73146062,3.98378299 C8.73143478,5.85481414 6.24702428,8.66615187 4.80398252,10.0918334 Z" id="Shape"></path>
                                                    <path d="M4.94321329,2.54376495 C3.75006455,2.54376495 2.77939321,3.4409598 2.77939321,4.54376495 C2.77939321,5.64657009 3.75008774,6.54376495 4.94321329,6.54376495 C6.13633884,6.54376495 7.10701017,5.64657009 7.10701017,4.54376495 C7.10701017,3.4409598 6.13633884,2.54376495 4.94321329,2.54376495 Z M4.94321329,5.82791274 C4.17711355,5.82791274 3.5538892,5.25185666 3.5538892,4.54376495 C3.5538892,3.83567323 4.17713674,3.25961715 4.94321329,3.25961715 C5.70928984,3.25961715 6.33253737,3.83567323 6.33253737,4.54376495 C6.33253737,5.25185666 5.70928984,5.82791274 4.94321329,5.82791274 Z" id="Shape"></path>
                                                </g>
                                            </g>
                                        </g>
                                    </g>
                                </g>
                            </g>
                        </g>
                    </g>
                </g>
            </g>
        </g>
    </g>
</svg>