<?xml version="1.0" encoding="UTF-8"?>
<svg width="20px" height="18px" viewBox="0 0 20 18" version="1.1" xmlns="http://www.w3.org/2000/svg" xmlns:xlink="http://www.w3.org/1999/xlink">
    <!-- Generator: Sketch 52.6 (67491) - http://www.bohemiancoding.com/sketch -->
    <title>email</title>
    <desc>Created with Sketch.</desc>
    <g id="Page-1" stroke="none" stroke-width="1" fill="none" fill-rule="evenodd">
        <g id="details-page-joined" transform="translate(-1286.000000, -33.000000)" fill="#FFFFFF" fill-rule="nonzero">
            <g id="Group-3" transform="translate(-1.000000, 0.000000)">
                <g id="top-copy">
                    <g id="top-section" transform="translate(71.000000, 21.000000)">
                        <g id="top">
                            <g id="header">
                                <g id="nav-right" transform="translate(1039.000000, 9.000000)">
                                    <g id="email" transform="translate(177.000000, 3.000000)">
                                        <path d="M18.124987,0.0462924625 L1.87501305,0.0462924625 C0.841067261,0.0462924625 2.84217094e-14,1.00245181 2.84217094e-14,2.17788328 L2.84217094e-14,14.9673332 C2.84217094e-14,16.1427647 0.841067261,17.098924 1.87501305,17.098924 L18.124987,17.098924 C19.1589327,17.098924 20,16.1427647 20,14.9673332 L20,2.17788328 C20,1.00245181 19.1589327,0.0462924625 18.124987,0.0462924625 Z M18.124987,1.46733718 C18.2099036,1.46733718 18.2906871,1.48736594 18.3645404,1.52234506 L10,9.76398678 L1.63541784,1.52234506 C1.70927111,1.4874134 1.79005465,1.46733718 1.8749713,1.46733718 L18.124987,1.46733718 Z M18.124987,15.6778319 L1.87501305,15.6778319 C1.53016962,15.6778319 1.24999478,15.3593652 1.24999478,14.9672858 L1.24999478,3.02369464 L9.59044625,11.2412259 C9.7082608,11.3570794 9.8541304,11.4146977 10,11.4146977 C10.1458696,11.4146977 10.2917392,11.3571269 10.4095537,11.2412259 L18.7500052,3.02369464 L18.7500052,14.9673332 C18.7499635,15.3593652 18.4698304,15.6778319 18.124987,15.6778319 Z" id="Shape"></path>
                                    </g>
                                </g>
                            </g>
                        </g>
                    </g>
                </g>
            </g>
        </g>
    </g>
</svg>