<?xml version="1.0" encoding="UTF-8"?>
<svg width="16px" height="17px" viewBox="0 0 16 17" version="1.1" xmlns="http://www.w3.org/2000/svg" xmlns:xlink="http://www.w3.org/1999/xlink">
    <!-- Generator: Sketch 52.6 (67491) - http://www.bohemiancoding.com/sketch -->
    <title>google-play</title>
    <desc>Created with Sketch.</desc>
    <g id="Page-1" stroke="none" stroke-width="1" fill="none" fill-rule="evenodd">
        <g id="details-page-joined" transform="translate(-565.000000, -36.000000)" fill="#FFFFFF" fill-rule="nonzero">
            <g id="Group-3" transform="translate(-1.000000, 0.000000)">
                <g id="top-copy">
                    <g id="top-section" transform="translate(71.000000, 21.000000)">
                        <g id="top">
                            <g id="header">
                                <g id="nav-left">
                                    <g id="google-play" transform="translate(495.000000, 15.000000)">
                                        <path d="M2.29397772,0.206847211 C1.85610956,-0.0448565217 1.33425303,-0.0673640344 0.879122429,0.142177738 L8.51011226,7.44475607 L11.0051973,5.05103455 L2.29397772,0.206847211 Z M0.178002208,0.818037133 C0.0817309652,1.01267957 0.0299436761,1.2291955 0.0299436761,1.45205157 L0.0299436761,14.8101018 C0.0299436761,15.0339089 0.082062935,15.2472548 0.179330087,15.4377761 L7.80733219,8.11903043 L0.178002208,0.818037133 Z M8.51114137,8.79235377 L0.892434418,16.1022233 C1.09460403,16.1916193 1.30972046,16.2306112 1.52450492,16.2306112 C1.78974879,16.2306112 2.05432872,16.1700628 2.29401092,16.0324817 L11.0068903,11.1810032 L8.51114137,8.79235377 Z M14.3229367,6.89601657 C14.319949,6.89411453 14.3166293,6.89221249 14.3136415,6.89062745 L11.8949096,5.54556581 L9.21358947,8.11807941 L11.8965694,10.6855209 C11.8965694,10.6855209 14.319949,9.33633816 14.3229367,9.33475312 C14.7727558,9.07385618 15.0413193,8.61799979 15.0413193,8.11522634 C15.0413193,7.61245289 14.7727558,7.15659651 14.3229367,6.89601657 Z" id="Shape"></path>
                                    </g>
                                </g>
                            </g>
                        </g>
                    </g>
                </g>
            </g>
        </g>
    </g>
</svg>