<?xml version="1.0" encoding="UTF-8"?>
<svg width="22px" height="20px" viewBox="0 0 22 20" version="1.1" xmlns="http://www.w3.org/2000/svg" xmlns:xlink="http://www.w3.org/1999/xlink">
    <!-- Generator: Sketch 52.6 (67491) - http://www.bohemiancoding.com/sketch -->
    <title>heart</title>
    <desc>Created with Sketch.</desc>
    <g id="Page-1" stroke="none" stroke-width="1" fill="none" fill-rule="evenodd">
        <g id="details-page-joined" transform="translate(-1242.000000, -32.000000)" stroke="#FFFFFF" stroke-width="2">
            <g id="Group-3" transform="translate(-1.000000, 0.000000)">
                <g id="top-copy">
                    <g id="top-section" transform="translate(71.000000, 21.000000)">
                        <g id="top">
                            <g id="header">
                                <g id="nav-right" transform="translate(1039.000000, 9.000000)">
                                    <g id="heart" transform="translate(134.000000, 3.000000)">
                                        <path d="M18.4133911,1.75966283 C17.3780823,0.624948592 15.957489,0 14.4129944,0 C13.2585144,0 12.2012329,0.368832237 11.2704468,1.0961657 C10.8007813,1.46330179 10.3752136,1.91246917 10,2.43672904 C9.62493898,1.91262336 9.19921875,1.46330179 8.72940063,1.0961657 C7.79876711,0.368832237 6.74148559,0 5.58700563,0 C4.04251098,0 2.62176516,0.624948592 1.58645629,1.75966283 C0.56350707,2.88111636 5.68434189e-14,4.41318872 5.68434189e-14,6.07385897 C5.68434189e-14,7.78310033 0.630340586,9.34770766 1.98364258,10.9978927 C3.19427492,12.4739926 4.93423461,13.9724507 6.94915773,15.7075966 C7.63717652,16.3001645 8.4170532,16.9718339 9.22683715,17.6872944 C9.44076539,17.8766447 9.71527102,17.9808799 10,17.9808799 C10.2845764,17.9808799 10.5592346,17.8766447 10.7728577,17.6876028 C11.5826416,16.9719881 12.3629761,16.3000103 13.0513,15.707134 C15.065918,13.9722965 16.8058777,12.4739926 18.01651,10.9977385 C19.369812,9.34770766 20,7.78310033 20,6.07370479 C20,4.41318872 19.4364929,2.88111636 18.4133911,1.75966283 Z" id="Path"></path>
                                    </g>
                                </g>
                            </g>
                        </g>
                    </g>
                </g>
            </g>
        </g>
    </g>
</svg>