<?xml version="1.0" encoding="UTF-8"?>
<svg width="22px" height="22px" viewBox="0 0 22 22" version="1.1" xmlns="http://www.w3.org/2000/svg" xmlns:xlink="http://www.w3.org/1999/xlink">
    <!-- Generator: Sketch 52.6 (67491) - http://www.bohemiancoding.com/sketch -->
    <title>icon</title>
    <desc>Created with Sketch.</desc>
    <g id="Page-1" stroke="none" stroke-width="1" fill="none" fill-rule="evenodd">
        <g id="wallet" transform="translate(-554.000000, -314.000000)" fill="#D31A51">
            <g id="data" transform="translate(535.000000, 232.000000)">
                <g id="Group-2" transform="translate(-1.000000, 25.000000)">
                    <g id="Group-6" transform="translate(0.000000, 42.000000)">
                        <g id="row" transform="translate(0.000000, 1.000000)">
                            <g id="icon" transform="translate(21.000000, 15.000000)">
                                <circle id="Oval" stroke="#D31A51" stroke-width="0.666666667" fill-opacity="0.1" fill-rule="nonzero" cx="10" cy="10" r="10"></circle>
                                <path d="M15.9308213,9.82323954 L12.3891564,6.07325119 C12.3213556,6.00195454 12.2205953,5.98022804 12.1318323,6.01904042 C12.043512,6.05761843 11.9861149,6.14893064 11.9861149,6.24999283 L11.9861149,6.74998346 C11.9861149,6.8163817 12.0110172,6.87987369 12.0552881,6.92674854 L14.4855785,9.49999054 L4.90278504,9.49999054 C4.77227469,9.50001398 4.66666667,9.61181051 4.66666667,9.74999758 L4.66666667,10.2499882 C4.66666667,10.3881753 4.77227469,10.4999952 4.90278504,10.4999952 L14.4855785,10.4999952 L12.0552881,13.0732373 C12.0110172,13.1201121 11.9861149,13.1835807 11.9861149,13.2500023 L11.9861149,13.749993 C11.9861149,13.8510786 12.0435342,13.9423674 12.1318323,13.9809454 C12.1611174,13.9938828 12.191775,14 12.2222112,14 C12.2835484,14 12.3439559,13.9746173 12.3891564,13.926758 L15.9308213,10.1767697 C16.0230596,10.0791059 16.0230596,9.9209033 15.9308213,9.82323954 Z" id="Path"></path>
                            </g>
                        </g>
                    </g>
                </g>
            </g>
        </g>
    </g>
</svg>