<?xml version="1.0" encoding="UTF-8"?>
<svg width="22px" height="22px" viewBox="0 0 22 22" version="1.1" xmlns="http://www.w3.org/2000/svg" xmlns:xlink="http://www.w3.org/1999/xlink">
    <!-- Generator: Sketch 52.6 (67491) - http://www.bohemiancoding.com/sketch -->
    <title>icon</title>
    <desc>Created with Sketch.</desc>
    <g id="Page-1" stroke="none" stroke-width="1" fill="none" fill-rule="evenodd">
        <g id="wallet" transform="translate(-553.000000, -509.000000)" fill="#009688">
            <g id="data" transform="translate(535.000000, 232.000000)">
                <g id="Group-2-Copy" transform="translate(-2.000000, 220.000000)">
                    <g id="Group-7" transform="translate(0.000000, 42.000000)">
                        <g id="row" transform="translate(0.000000, 1.000000)">
                            <g id="icon" transform="translate(21.000000, 15.000000)">
                                <circle id="Oval" stroke="#009688" stroke-width="0.666666667" fill-opacity="0.1" fill-rule="nonzero" cx="10" cy="10" r="10"></circle>
                                <g id="arrow_forward-24px" transform="translate(9.666667, 10.000000) scale(-1, 1) translate(-9.666667, -10.000000) translate(4.000000, 6.000000)">
                                    <path d="M11.2641547,3.82323954 L7.72248972,0.0732511917 C7.65468897,0.00195453824 7.5539286,-0.0197719568 7.46516563,0.0190404227 C7.37684536,0.0576184278 7.31944825,0.148930644 7.31944825,0.24999283 L7.31944825,0.749983464 C7.31944825,0.816381695 7.34435058,0.879873685 7.38862139,0.92674854 L9.81891187,3.49999054 L0.236118374,3.49999054 C0.105608021,3.50001398 0,3.61181051 0,3.74999758 L0,4.24998821 C0,4.38817528 0.105608021,4.49999525 0.236118374,4.49999525 L9.81891187,4.49999525 L7.38862139,7.07323725 C7.34435058,7.12011211 7.31944825,7.18358066 7.31944825,7.25000233 L7.31944825,7.74999296 C7.31944825,7.85107859 7.37686749,7.94236737 7.46516563,7.98094537 C7.49445077,7.99388283 7.5251083,8 7.55554449,8 C7.6168817,8 7.67728922,7.97461727 7.72248972,7.92675804 L11.2641547,4.17676969 C11.3563929,4.07910593 11.3563929,3.9209033 11.2641547,3.82323954 Z" id="Path"></path>
                                </g>
                            </g>
                        </g>
                    </g>
                </g>
            </g>
        </g>
    </g>
</svg>