<?xml version="1.0" encoding="UTF-8"?>
<svg width="16px" height="18px" viewBox="0 0 16 18" version="1.1" xmlns="http://www.w3.org/2000/svg" xmlns:xlink="http://www.w3.org/1999/xlink">
    <!-- Generator: Sketch 52.6 (67491) - http://www.bohemiancoding.com/sketch -->
    <title>icon-location</title>
    <desc>Created with Sketch.</desc>
    <g id="Page-1" stroke="none" stroke-width="1" fill="none" fill-rule="evenodd">
        <g id="search-results" transform="translate(-152.000000, -230.000000)" fill="#5E60FF" fill-rule="nonzero">
            <g id="Group-3" transform="translate(-1.000000, 0.000000)">
                <g id="hero">
                    <g id="filters" transform="translate(121.000000, 218.000000)">
                        <g id="filter-copy-2">
                            <g id="icon-location" transform="translate(32.000000, 12.000000)">
                                <path d="M7.62205093,0 C3.4313883,0 0.0220509338,2.92436703 0.0220509338,6.51888246 C0.0220509338,10.9797885 6.82330641,17.5286592 7.11287589,17.8052686 C7.38486217,18.0651084 7.85973153,18.0646514 8.13122597,17.8052686 C8.42079545,17.5286592 15.2220509,10.9797885 15.2220509,6.51888246 C15.221969,2.92436703 11.8126726,0 7.62205093,0 Z M7.62205093,16.5139093 C5.33307899,14.1817141 1.39067147,9.58049948 1.39067147,6.51895277 C1.39067147,3.57166387 4.18603137,1.17393744 7.62205093,1.17393744 C11.0580705,1.17393744 13.8534304,3.57166387 13.8534304,6.51891762 C13.8533894,9.58060495 9.91159668,14.1809758 7.62205093,16.5139093 Z" id="Shape"></path>
                                <path d="M7.84295598,4.16252446 C5.94989321,4.16252446 4.40981551,5.6306615 4.40981551,7.43525173 C4.40981551,9.23984196 5.94993001,10.707979 7.84295598,10.707979 C9.73598195,10.707979 11.2760597,9.23984196 11.2760597,7.43525173 C11.2760597,5.6306615 9.73598195,4.16252446 7.84295598,4.16252446 Z M7.84295598,9.53658448 C6.6274538,9.53658448 5.63863927,8.59394726 5.63863927,7.43525173 C5.63863927,6.2765562 6.6274906,5.33391898 7.84295598,5.33391898 C9.05842137,5.33391898 10.0472727,6.2765562 10.0472727,7.43525173 C10.0472727,8.59394726 9.05842137,9.53658448 7.84295598,9.53658448 Z" id="Shape"></path>
                            </g>
                        </g>
                    </g>
                </g>
            </g>
        </g>
    </g>
</svg>