<?xml version="1.0" encoding="UTF-8"?>
<svg width="127px" height="42px" viewBox="0 0 127 42" version="1.1" xmlns="http://www.w3.org/2000/svg" xmlns:xlink="http://www.w3.org/1999/xlink">
    <!-- Generator: Sketch 52.6 (67491) - http://www.bohemiancoding.com/sketch -->
    <title>logo</title>
    <desc>Created with Sketch.</desc>
    <g id="Page-1" stroke="none" stroke-width="1" fill="none" fill-rule="evenodd">
        <g id="details-page-joined" transform="translate(-70.000000, -21.000000)" fill="#FFFFFF" fill-rule="nonzero">
            <g id="Group-3" transform="translate(-1.000000, 0.000000)">
                <g id="top-copy">
                    <g id="top-section" transform="translate(71.000000, 21.000000)">
                        <g id="top">
                            <g id="header">
                                <g id="nav-left">
                                    <g id="logo">
                                        <path d="M6.047,4.112 C-1.641,10.702 -1.998,22.317 4.977,29.373 L5.058,29.456 L16.426,40.823 C16.647142,41.0469507 16.9487656,41.1730038 17.2635,41.1730038 C17.5782344,41.1730038 17.879858,41.0469507 18.101,40.823 C18.3249507,40.601858 18.4510038,40.3002344 18.4510038,39.9855 C18.4510038,39.6707656 18.3249507,39.369142 18.101,39.148 L12.911,33.958 L6.926,27.973 C1.132,22.179 0.857,12.706 6.596,6.858 C12.5,0.789 22.302,0.872 28.123,7.078 C33.45,12.761 33.45,21.768 28.096,27.451 C26.997,28.631 25.734,29.565 24.416,30.307 L22.192,28.083 C23.895,27.313 25.46,26.106 26.722,24.458 C30.182,19.955 29.908,13.503 26.119,9.301 C21.533,4.194 13.625,4.03 8.82,8.835 C4.207,13.448 4.18,20.944 8.738,25.585 L8.82,25.666 L15.136,31.982 L17.662,34.508 L20.188,37.034 C20.409142,37.2579507 20.7107656,37.3840038 21.0255,37.3840038 C21.3402344,37.3840038 21.641858,37.2579507 21.863,37.034 C22.0869507,36.812858 22.2130038,36.5112344 22.2130038,36.1965 C22.2130038,35.8817656 22.0869507,35.580142 21.863,35.359 L20.683,34.179 L18.595,32.092 L15.575,29.072 L10.66,24.156 C7.008,20.504 6.76,14.601 10.248,10.812 C14.175,6.556 21.039,6.748 24.718,11.388 C27.464,14.848 27.437,19.845 24.663,23.25 C23.5404862,24.6436233 22.0461205,25.6907194 20.353,26.27 L17.853,23.772 C19.529,23.607 21.176,22.811 22.33,21.356 C24.252,18.994 24.252,15.534 22.33,13.173 C19.721,9.96 14.888,9.906 12.225,13.036 C10.055,15.562 10.33,19.653 12.692,22.015 L17.469,26.792 L19.611,28.934 L22.027,31.35 L23.702,33.025 C23.9885172,33.3150907 24.3792688,33.4783657 24.787,33.4783657 C25.1947312,33.4783657 25.5854828,33.3150907 25.872,33.025 L29.414,29.483 C36.443,22.453 36.141,10.784 28.453,4.167 C22.083,-1.38 12.473,-1.38 6.047,4.112 Z M14.312,14.299 C15.932,12.679 18.595,12.679 20.215,14.299 C21.835,15.919 21.835,18.582 20.215,20.202 C18.595,21.822 15.932,21.822 14.312,20.202 C13.5215162,19.4233216 13.076421,18.3600967 13.076421,17.2505 C13.076421,16.1409033 13.5215162,15.0776784 14.312,14.299 Z" id="Shape"></path>
                                        <path d="M53.74,14.272 L47.013,14.272 C46.3774149,14.275276 45.862827,14.789418 45.859,15.425 L45.859,25.749 C45.862827,26.384582 46.3774149,26.898724 47.013,26.902 C47.6481946,26.8981784 48.1621784,26.3841946 48.166,25.749 L48.166,16.579 L53.767,16.579 C55.1150263,16.5822958 56.2071525,17.6739751 56.211,19.022 C56.2077018,20.3704154 55.1154154,21.4627018 53.767,21.466 L50.362,21.466 C49.7268054,21.4698216 49.2128216,21.9838054 49.209,22.619 C49.2128216,23.2541946 49.7268054,23.7681784 50.362,23.772 L53.767,23.772 C56.3754409,23.772 58.49,21.6574409 58.49,19.049 C58.49,16.413 56.348,14.272 53.74,14.272 Z M74.991,14.409 C74.415,14.134 73.728,14.354 73.454,14.931 L69.307,23.196 L65.161,14.931 C64.887,14.354 64.201,14.135 63.624,14.409 C63.047,14.684 62.827,15.37 63.102,15.947 L68.264,26.271 C68.4544768,26.6580072 68.8486587,26.902819 69.28,26.902 C69.72,26.902 70.104,26.655 70.296,26.271 L75.458,15.947 C75.788,15.37 75.568,14.684 74.991,14.409 Z M90.068,24.596 L83.478,24.596 L83.478,15.425 C83.474724,14.7894149 82.960582,14.274827 82.325,14.271 C81.689418,14.274827 81.175276,14.7894149 81.172,15.425 L81.172,25.749 C81.1758216,26.3841946 81.6898054,26.8981784 82.325,26.902 L90.068,26.902 C90.7035851,26.898724 91.218173,26.384582 91.222,25.749 C91.218173,25.113418 90.7035851,24.599276 90.068,24.596 Z M104.646,19.434 L99.484,19.434 C99.1046265,19.4364174 98.740105,19.2867119 98.471936,19.0183549 C98.2037669,18.749998 98.0543168,18.3853717 98.057,18.006 C98.057,17.209 98.688,16.578 99.484,16.578 L106.623,16.578 C107.258585,16.574724 107.773173,16.060582 107.777,15.425 C107.773719,14.7890274 107.258973,14.2742811 106.623,14.271 L99.484,14.271 C97.4222926,14.2732056 95.7516535,15.9442921 95.75,18.006 C95.7522046,20.0673174 97.4226826,21.7377954 99.484,21.74 L104.646,21.74 C105.443,21.74 106.074,22.372 106.074,23.168 C106.074,23.964 105.443,24.596 104.646,24.596 L96.903,24.596 C96.2678054,24.5998216 95.7538216,25.1138054 95.75,25.749 C95.7538216,26.3841946 96.2678054,26.8981784 96.903,26.902 L104.646,26.902 C106.707708,26.9003465 108.378794,25.2297074 108.381,23.168 C108.353,21.108 106.706,19.434 104.646,19.434 Z M115.52,16.578 L125.845,16.578 C126.480195,16.5741784 126.994178,16.0601946 126.998,15.425 C126.994724,14.7894149 126.480582,14.274827 125.845,14.271 L115.52,14.271 C114.884418,14.274827 114.370276,14.7894149 114.367,15.425 C114.370822,16.0601946 114.884805,16.5741784 115.52,16.578 Z M125.845,19.434 L115.52,19.434 C114.884805,19.4378216 114.370822,19.9518054 114.367,20.587 C114.370822,21.2221946 114.884805,21.7361784 115.52,21.74 L125.845,21.74 C126.480195,21.7361784 126.994178,21.2221946 126.998,20.587 C126.994178,19.9518054 126.480195,19.4378216 125.845,19.434 Z M125.845,24.596 L115.52,24.596 C114.884805,24.5998216 114.370822,25.1138054 114.367,25.749 C114.370822,26.3841946 114.884805,26.8981784 115.52,26.902 L125.845,26.902 C126.480195,26.8981784 126.994178,26.3841946 126.998,25.749 C126.994178,25.1138054 126.480195,24.5998216 125.845,24.596 Z" id="Shape"></path>
                                    </g>
                                </g>
                            </g>
                        </g>
                    </g>
                </g>
            </g>
        </g>
    </g>
</svg>