<?xml version="1.0" encoding="UTF-8"?>
<svg width="16px" height="21px" viewBox="0 0 16 21" version="1.1" xmlns="http://www.w3.org/2000/svg" xmlns:xlink="http://www.w3.org/1999/xlink">
    <!-- Generator: Sketch 52.6 (67491) - http://www.bohemiancoding.com/sketch -->
    <title>baseline-lock-24px</title>
    <desc>Created with Sketch.</desc>
    <g id="Page-1" stroke="none" stroke-width="1" fill="none" fill-rule="evenodd">
        <g id="register" transform="translate(-574.000000, -476.000000)">
            <g id="Group-3" transform="translate(-3.000000, -11.000000)">
                <g id="form" transform="translate(508.000000, 261.000000)">
                    <g id="Password-field" transform="translate(50.000000, 216.000000)">
                        <g id="baseline-lock-24px" transform="translate(16.000000, 10.000000)">
                            <polygon id="Path" points="0 0 22 0 22 22 0 22"></polygon>
                            <path d="M16.5,7.33333333 L15.5833333,7.33333333 L15.5833333,5.5 C15.5833333,2.97 13.53,0.916666667 11,0.916666667 C8.47,0.916666667 6.41666667,2.97 6.41666667,5.5 L6.41666667,7.33333333 L5.5,7.33333333 C4.49166667,7.33333333 3.66666667,8.15833333 3.66666667,9.16666667 L3.66666667,18.3333333 C3.66666667,19.3416667 4.49166667,20.1666667 5.5,20.1666667 L16.5,20.1666667 C17.5083333,20.1666667 18.3333333,19.3416667 18.3333333,18.3333333 L18.3333333,9.16666667 C18.3333333,8.15833333 17.5083333,7.33333333 16.5,7.33333333 Z M11,15.5833333 C9.99166667,15.5833333 9.16666667,14.7583333 9.16666667,13.75 C9.16666667,12.7416667 9.99166667,11.9166667 11,11.9166667 C12.0083333,11.9166667 12.8333333,12.7416667 12.8333333,13.75 C12.8333333,14.7583333 12.0083333,15.5833333 11,15.5833333 Z M13.8416667,7.33333333 L8.15833333,7.33333333 L8.15833333,5.5 C8.15833333,3.9325 9.4325,2.65833333 11,2.65833333 C12.5675,2.65833333 13.8416667,3.9325 13.8416667,5.5 L13.8416667,7.33333333 Z" id="Shape" fill="#5E60FF" fill-rule="nonzero"></path>
                        </g>
                    </g>
                </g>
            </g>
        </g>
    </g>
</svg>