<?xml version="1.0" encoding="UTF-8"?>
<svg width="33px" height="33px" viewBox="0 0 33 33" version="1.1" xmlns="http://www.w3.org/2000/svg" xmlns:xlink="http://www.w3.org/1999/xlink">
    <!-- Generator: Sketch 52.6 (67491) - http://www.bohemiancoding.com/sketch -->
    <title>plus</title>
    <desc>Created with Sketch.</desc>
    <g id="Page-1" stroke="none" stroke-width="1" fill="none" fill-rule="evenodd">
        <g id="details-page" transform="translate(-859.000000, -1673.000000)" fill="#FFFFFF">
            <g id="Group-3" transform="translate(-1.000000, 0.000000)">
                <g id="s2-copy-2" transform="translate(121.000000, 1539.000000)">
                    <g id="Group-8" transform="translate(1.000000, 64.000000)">
                        <g id="plus" transform="translate(738.000000, 70.000000)">
                            <circle id="Oval" fill-opacity="0.3" fill-rule="nonzero" cx="16.5" cy="16.5" r="16.5"></circle>
                            <path d="M16.5,0 C7.4013457,0 0,7.4013457 0,16.5 C0,25.5986543 7.4013457,33 16.5,33 C25.5986543,33 33,25.5973652 33,16.5 C33,7.40263477 25.5986543,0 16.5,0 Z M16.5,30.4438535 C8.81235352,30.4438535 2.55614648,24.1889355 2.55614648,16.5 C2.55614648,8.81106445 8.81235352,2.55614648 16.5,2.55614648 C24.1876465,2.55614648 30.4438535,8.81106445 30.4438535,16.5 C30.4438535,24.1889355 24.1889355,30.4438535 16.5,30.4438535 Z" id="Shape" fill-rule="nonzero"></path>
                            <path d="M22.8903984,15.1069102 L17.7781055,15.1069102 L17.7781055,9.99461719 C17.7781055,9.28911328 17.206793,8.71651172 16.5,8.71651172 C15.793207,8.71651172 15.2218945,9.28911328 15.2218945,9.99461719 L15.2218945,15.1069102 L10.1096016,15.1069102 C9.40280859,15.1069102 8.83149609,15.6795117 8.83149609,16.3850156 C8.83149609,17.0905195 9.40280859,17.6631211 10.1096016,17.6631211 L15.2218945,17.6631211 L15.2218945,22.7754141 C15.2218945,23.480918 15.793207,24.0535195 16.5,24.0535195 C17.206793,24.0535195 17.7781055,23.480918 17.7781055,22.7754141 L17.7781055,17.6631211 L22.8903984,17.6631211 C23.5971914,17.6631211 24.1685039,17.0905195 24.1685039,16.3850156 C24.1685039,15.6795117 23.5971914,15.1069102 22.8903984,15.1069102 Z" id="Path"></path>
                        </g>
                    </g>
                </g>
            </g>
        </g>
    </g>
</svg>