<?xml version="1.0" encoding="UTF-8"?>
<svg width="18px" height="18px" viewBox="0 0 18 18" version="1.1" xmlns="http://www.w3.org/2000/svg" xmlns:xlink="http://www.w3.org/1999/xlink">
    <!-- Generator: Sketch 52.6 (67491) - http://www.bohemiancoding.com/sketch -->
    <title>Path</title>
    <desc>Created with Sketch.</desc>
    <g id="Page-1" stroke="none" stroke-width="1" fill="none" fill-rule="evenodd">
        <g id="payment&amp;checkout" transform="translate(-132.000000, -343.000000)" fill="#5E60FF">
            <g id="Group-3" transform="translate(-1.000000, 0.000000)">
                <g id="Group-Copy-4" transform="translate(119.000000, 165.000000)">
                    <g id="Group-2-Copy-3" transform="translate(2.000000, 167.000000)">
                        <path d="M28.4999748,18.4999748 L22.5000252,18.4999748 L22.5000252,12.5000252 C22.5000252,11.6720234 21.8295147,11 21,11 C20.1704853,11 19.4999748,11.6720234 19.4999748,12.5000252 L19.4999748,18.4999748 L13.5000252,18.4999748 C12.6705105,18.4999748 12,19.1719982 12,20 C12,20.8280018 12.6705105,21.5000252 13.5000252,21.5000252 L19.4999748,21.5000252 L19.4999748,27.4999748 C19.4999748,28.3279766 20.1704853,29 21,29 C21.8295147,29 22.5000252,28.3279766 22.5000252,27.4999748 L22.5000252,21.5000252 L28.4999748,21.5000252 C29.3294895,21.5000252 30,20.8280018 30,20 C30,19.1719982 29.3294895,18.4999748 28.4999748,18.4999748 Z" id="Path"></path>
                    </g>
                </g>
            </g>
        </g>
    </g>
</svg>