<?xml version="1.0" encoding="UTF-8"?>
<svg width="16px" height="19px" viewBox="0 0 16 19" version="1.1" xmlns="http://www.w3.org/2000/svg" xmlns:xlink="http://www.w3.org/1999/xlink">
    <!-- Generator: Sketch 52.6 (67491) - http://www.bohemiancoding.com/sketch -->
    <title>price-tag</title>
    <desc>Created with Sketch.</desc>
    <g id="Page-1" stroke="none" stroke-width="1" fill="none" fill-rule="evenodd">
        <g id="search-results" transform="translate(-740.000000, -229.000000)" fill-rule="nonzero" stroke="#5E60FF">
            <g id="Group-3" transform="translate(-1.000000, 0.000000)">
                <g id="hero">
                    <g id="filters" transform="translate(121.000000, 218.000000)">
                        <g id="filter-copy" transform="translate(588.000000, 0.000000)">
                            <g id="price-tag" transform="translate(40.000000, 21.000000) rotate(-12.000000) translate(-40.000000, -21.000000) translate(32.000000, 13.000000)">
                                <path d="M14.3333437,0 L10.1046562,0 C9.3033125,0 8.55,0.312 7.9833125,0.87865625 L0.56865625,8.29334375 C0.202,8.66 0,9.14734375 0,9.668 C0,10.186 0.202,10.6733437 0.56865625,11.04 L4.96,15.4313437 C5.32665625,15.798 5.814,16 6.33465625,16 C6.85265625,16 7.34,15.798 7.70665625,15.4313437 L15.1213125,8.0166875 C15.688,7.45 16,6.69665625 16,5.89534375 L16,1.66665625 C16,0.748 15.252,0 14.3333437,0 Z M15.3333438,5.89534375 C15.3333438,6.5186875 15.0906875,7.1046875 14.6506875,7.5446875 L7.23534375,14.96 C6.756,15.4393438 5.91534375,15.4426563 5.432,14.96 L1.04,10.568 C0.79934375,10.328 0.66665625,10.008 0.66665625,9.66534375 C0.66665625,9.32534375 0.7993125,9.00534375 1.04,8.7646875 L8.45465625,1.35 C8.896,0.90934375 9.4813125,0.66665625 10.1046562,0.66665625 L14.3333125,0.66665625 C14.8846562,0.66665625 15.3333125,1.1153125 15.3333125,1.66665625 L15.3333125,5.89534375 L15.3333438,5.89534375 Z" id="Shape" fill="#5E60FF"></path>
                                <path d="M11.1472845,2.77023591 C10.2286282,2.77023591 9.48062821,3.51823591 9.48062821,4.43689216 C9.48062821,5.35554841 10.2286282,6.10354841 11.1472845,6.10354841 C12.0659407,6.10354841 12.8139407,5.35557966 12.8139407,4.43689216 C12.8139407,3.51823591 12.0659407,2.77023591 11.1472845,2.77023591 Z M11.1472845,5.43689216 C10.5959407,5.43689216 10.1472845,4.98823591 10.1472845,4.43689216 C10.1472845,3.88554841 10.5959407,3.43689216 11.1472845,3.43689216 C11.6986282,3.43689216 12.1472845,3.88554841 12.1472845,4.43689216 C12.1472845,4.98823591 11.698597,5.43689216 11.1472845,5.43689216 Z" id="Shape"></path>
                            </g>
                        </g>
                    </g>
                </g>
            </g>
        </g>
    </g>
</svg>