<?xml version="1.0" encoding="UTF-8"?>
<svg width="17px" height="16px" viewBox="0 0 17 16" version="1.1" xmlns="http://www.w3.org/2000/svg" xmlns:xlink="http://www.w3.org/1999/xlink">
    <!-- Generator: Sketch 52.6 (67491) - http://www.bohemiancoding.com/sketch -->
    <title>Shape</title>
    <desc>Created with Sketch.</desc>
    <g id="Page-1" stroke="none" stroke-width="1" fill="none" fill-rule="evenodd">
        <g id="details-page-joined" transform="translate(-935.000000, -513.000000)" fill="#5E60FF" fill-rule="nonzero">
            <g id="Group-3" transform="translate(-1.000000, 0.000000)">
                <g id="s1" transform="translate(121.000000, 279.000000)">
                    <g id="details" transform="translate(815.000000, 120.000000)">
                        <g id="line-det-copy-2" transform="translate(0.000000, 113.000000)">
                            <path d="M16.6679688,7.38790407 C16.4845215,7.38790407 16.3359375,7.5638226 16.3359375,7.78046986 L16.3359375,9.17947618 C16.3359375,9.98227321 15.7834168,10.6355272 15.1044128,10.6355272 L13.2118347,10.6355272 C13.1237427,10.6355272 13.039386,10.6767466 12.9770264,10.7503527 L10.6825867,13.4632276 L10.6825867,11.028093 C10.6825867,10.8112004 10.5338989,10.6355272 10.3505554,10.6355272 L5.596698,10.6355272 C4.9176941,10.6355272 4.36517335,9.98239588 4.36517335,9.17947618 L4.36517335,3.24105993 C4.36517335,2.4382629 4.9176941,1.78513157 5.596698,1.78513157 L15.1044128,1.78513157 C15.7834168,1.78513157 16.3359375,2.4382629 16.3359375,3.24105993 L16.3359375,4.63994358 C16.3359375,4.85683617 16.4845215,5.03250936 16.6679688,5.03250936 C16.8512085,5.03250936 17,4.85683617 17,4.63994358 L17,3.24105993 C17,2.00533645 16.1496887,1 15.1044128,1 L5.596698,1 C4.55142211,1 3.70111085,2.00533645 3.70111085,3.24105993 L3.70111085,8.28442619 L1.28444215,8.28442619 C0.576281725,8.28442619 0,8.96552782 0,9.8030424 L0,13.4205361 C0,14.2580507 0.576281725,14.9391523 1.28444215,14.9391523 L2.29993898,14.9391523 L3.94556883,16.8849292 C4.00917359,16.96013 4.09415282,17 4.18048094,17 C4.22322999,17 4.26649781,16.9901859 4.3074829,16.9700669 C4.4315796,16.9093418 4.51251219,16.7663007 4.51251219,16.6074342 L4.51251219,14.9391523 L7.07641602,14.9391523 C7.78468016,14.9391523 8.36085816,14.2580507 8.36085816,13.4205361 L8.36085816,11.4206588 L10.0185242,11.4206588 L10.0185242,14.410906 C10.0185242,14.5697725 10.0994568,14.7128136 10.2235535,14.7735386 C10.2645386,14.7936576 10.3077027,14.8034718 10.3505554,14.8034718 C10.4369873,14.8034718 10.5218628,14.7636018 10.5853638,14.6884009 L13.3493164,11.4206588 L15.1044128,11.4206588 C16.1496887,11.4206588 17,10.4153223 17,9.17947618 L17,7.78046986 C17,7.5638226 16.8512085,7.38790407 16.6679688,7.38790407 Z M8,13.6215376 C8,14.0512844 7.72301563,14.4006329 7.38241369,14.4006329 L4.49999999,14.4006329 C4.31740925,14.4006329 4.16951902,14.5874907 4.16951902,14.8176098 L4.16951902,16 L2.99879019,14.5228593 C2.93682501,14.4446761 2.85275893,14.4006329 2.7650782,14.4006329 L1.61748304,14.4006329 C1.27698435,14.4006329 1,14.0512844 1,13.6215376 L1,9.77909532 C1,9.34947876 1.27698435,9 1.61748304,9 L4.02286812,9 L4.02286812,9.11675354 C4.02286812,10.429449 4.8692092,11.4973008 5.90960461,11.4973008 L8,11.4973008 L8,13.6215376 Z" id="Shape" transform="translate(8.500000, 9.000000) scale(-1, 1) translate(-8.500000, -9.000000) "></path>
                        </g>
                    </g>
                </g>
            </g>
        </g>
    </g>
</svg>