<?xml version="1.0" encoding="UTF-8"?>
<svg width="19px" height="16px" viewBox="0 0 19 16" version="1.1" xmlns="http://www.w3.org/2000/svg" xmlns:xlink="http://www.w3.org/1999/xlink">
    <!-- Generator: Sketch 52.6 (67491) - http://www.bohemiancoding.com/sketch -->
    <title>group</title>
    <desc>Created with Sketch.</desc>
    <g id="Page-1" stroke="none" stroke-width="1" fill="none" fill-rule="evenodd">
        <g id="details-page-joined" transform="translate(-935.000000, -475.000000)" fill="#5E60FF" fill-rule="nonzero">
            <g id="Group-3" transform="translate(-1.000000, 0.000000)">
                <g id="s1" transform="translate(121.000000, 279.000000)">
                    <g id="details" transform="translate(815.000000, 120.000000)">
                        <g id="line-det-copy-3" transform="translate(0.000000, 75.000000)">
                            <g id="group" transform="translate(9.500000, 9.000000) scale(-1, 1) translate(-9.500000, -9.000000) translate(0.000000, 1.000000)">
                                <path d="M16.6403162,8.02236025 C15.9733202,7.45093168 15.187747,7.0136646 14.3280632,6.7552795 C15.3705534,6.11925466 16.0721344,4.96149068 16.0721344,3.6447205 C16.0721344,1.63726708 14.4565217,0.0124223602 12.4604743,0.0124223602 C10.4644269,0.0124223602 8.84881423,1.64223602 8.84881423,3.6447205 C8.84881423,4.96149068 9.54545455,6.11925466 10.5928854,6.7552795 C9.743083,7.0136646 8.9673913,7.44596273 8.30533597,8.00745342 C7.82114625,7.58012422 7.25790514,7.24720497 6.64031621,7.03354037 C7.3715415,6.51677019 7.85573123,5.65714286 7.85573123,4.68819876 C7.85573123,3.10310559 6.58102767,1.82111801 5.00494071,1.82111801 C3.42885375,1.82111801 2.1541502,3.10310559 2.1541502,4.68819876 C2.1541502,5.65714286 2.63339921,6.51677019 3.36956522,7.03354037 C1.40810277,7.71428571 0,9.58757764 0,11.7888199 L0,12.1167702 C0,12.1267081 0.00988142292,12.136646 0.0197628458,12.136646 L6.06225296,12.136646 C6.02766798,12.4099379 6.00790514,12.6931677 6.00790514,12.9763975 L6.00790514,13.3142857 C6.00790514,14.7751553 7.18379447,15.957764 8.63636364,15.957764 L16.2944664,15.957764 C17.7470356,15.957764 18.9229249,14.7751553 18.9229249,13.3142857 L18.9229249,12.9763975 C18.9229249,12.6931677 18.9031621,12.4099379 18.8685771,12.136646 C17.705863,9.10227743 16.9631094,7.73084886 16.6403162,8.02236025 Z M9.62944664,3.6447205 C9.62944664,2.07950311 10.8942688,0.807453416 12.4505929,0.807453416 C14.006917,0.807453416 15.2717391,2.07950311 15.2717391,3.6447205 C15.2717391,5.1552795 14.0909091,6.39254658 12.6136364,6.47701863 C12.5592885,6.47701863 12.5049407,6.47701863 12.4505929,6.47701863 C12.3962451,6.47701863 12.3418972,6.47701863 12.2875494,6.47701863 C10.8102767,6.39254658 9.62944664,5.1552795 9.62944664,3.6447205 Z M2.9298419,4.67826087 C2.9298419,3.53540373 3.85375494,2.60621118 4.99011858,2.60621118 C6.12648221,2.60621118 7.05039526,3.53540373 7.05039526,4.67826087 C7.05039526,5.80621118 6.14624506,6.72546584 5.02964427,6.75031056 C5.01482213,6.75031056 5.00494071,6.75031056 4.99011858,6.75031056 C4.97529644,6.75031056 4.96541502,6.75031056 4.95059289,6.75031056 C3.83399209,6.73043478 2.9298419,5.81118012 2.9298419,4.67826087 Z M6.20059289,11.336646 L0.800395257,11.336646 C1.02272727,9.21987578 2.8013834,7.56024845 4.96047431,7.54534161 C4.97035573,7.54534161 4.98023715,7.54534161 4.99011858,7.54534161 C5,7.54534161 5.00988142,7.54534161 5.01976285,7.54534161 C6.04743083,7.55031056 6.98616601,7.93291925 7.71245059,8.55403727 C7.00098814,9.32919255 6.47233202,10.2832298 6.20059289,11.336646 Z M18.1225296,13.3142857 C18.1225296,14.3329193 17.2974308,15.1627329 16.284585,15.1627329 L8.62648221,15.1627329 C7.61363636,15.1627329 6.78853755,14.3329193 6.78853755,13.3142857 L6.78853755,12.9763975 C6.78853755,9.89068323 9.23913043,7.36645963 12.2875494,7.27701863 C12.3418972,7.28198758 12.4011858,7.28198758 12.4555336,7.28198758 C12.5098814,7.28198758 12.56917,7.28198758 12.6235178,7.27701863 C15.6719368,7.36645963 18.1225296,9.89068323 18.1225296,12.9763975 L18.1225296,13.3142857 Z" id="Shape"></path>
                            </g>
                        </g>
                    </g>
                </g>
            </g>
        </g>
    </g>
</svg>