<?xml version="1.0" encoding="UTF-8"?>
<svg width="13px" height="16px" viewBox="0 0 13 16" version="1.1" xmlns="http://www.w3.org/2000/svg" xmlns:xlink="http://www.w3.org/1999/xlink">
    <!-- Generator: Sketch 52.6 (67491) - http://www.bohemiancoding.com/sketch -->
    <title>pers</title>
    <desc>Created with Sketch.</desc>
    <g id="Page-1" stroke="none" stroke-width="1" fill="none" fill-rule="evenodd">
        <g id="details-page-joined" transform="translate(-936.000000, -550.000000)" fill="#5E60FF" fill-rule="nonzero">
            <g id="Group-3" transform="translate(-1.000000, 0.000000)">
                <g id="s1" transform="translate(121.000000, 279.000000)">
                    <g id="details" transform="translate(815.000000, 120.000000)">
                        <g id="line-det-copy-4" transform="translate(1.000000, 150.000000)">
                            <g id="pers" transform="translate(6.500000, 9.000000) scale(-1, 1) translate(-6.500000, -9.000000) translate(0.000000, 1.000000)">
                                <path d="M10.6403162,8.02236025 C9.97332016,7.45093168 9.18774704,7.0136646 8.32806324,6.7552795 C9.37055336,6.11925466 10.0721344,4.96149068 10.0721344,3.6447205 C10.0721344,1.63726708 8.45652174,0.0124223602 6.46047431,0.0124223602 C4.46442688,0.0124223602 2.84881423,1.64223602 2.84881423,3.6447205 C2.84881423,4.96149068 3.54545455,6.11925466 4.59288538,6.7552795 C3.743083,7.0136646 2.9673913,7.44596273 2.30533597,8.00745342 C1.98254282,7.72256729 1.23484848,9.0989648 0.0622529644,12.136646 C0.0276679842,12.4099379 0.00790513834,12.6931677 0.00790513834,12.9763975 L0.00790513834,13.3142857 C0.00790513834,14.7751553 1.18379447,15.957764 2.63636364,15.957764 L10.2944664,15.957764 C11.7470356,15.957764 12.9229249,14.7751553 12.9229249,13.3142857 L12.9229249,12.9763975 C12.9229249,12.6931677 12.9031621,12.4099379 12.8685771,12.136646 C11.705863,9.10227743 10.9631094,7.73084886 10.6403162,8.02236025 Z M3.62944664,3.6447205 C3.62944664,2.07950311 4.89426877,0.807453416 6.45059289,0.807453416 C8.006917,0.807453416 9.27173913,2.07950311 9.27173913,3.6447205 C9.27173913,5.1552795 8.09090909,6.39254658 6.61363636,6.47701863 C6.55928854,6.47701863 6.50494071,6.47701863 6.45059289,6.47701863 C6.39624506,6.47701863 6.34189723,6.47701863 6.28754941,6.47701863 C4.81027668,6.39254658 3.62944664,5.1552795 3.62944664,3.6447205 Z M12.1225296,13.3142857 C12.1225296,14.3329193 11.2974308,15.1627329 10.284585,15.1627329 L2.62648221,15.1627329 C1.61363636,15.1627329 0.788537549,14.3329193 0.788537549,13.3142857 L0.788537549,12.9763975 C0.788537549,9.89068323 3.23913043,7.36645963 6.28754941,7.27701863 C6.34189723,7.28198758 6.40118577,7.28198758 6.4555336,7.28198758 C6.50988142,7.28198758 6.56916996,7.28198758 6.62351779,7.27701863 C9.67193676,7.36645963 12.1225296,9.89068323 12.1225296,12.9763975 L12.1225296,13.3142857 Z" id="Shape"></path>
                            </g>
                        </g>
                    </g>
                </g>
            </g>
        </g>
    </g>
</svg>