<?xml version="1.0" encoding="UTF-8"?>
<svg width="15px" height="15px" viewBox="0 0 15 15" version="1.1" xmlns="http://www.w3.org/2000/svg" xmlns:xlink="http://www.w3.org/1999/xlink">
    <!-- Generator: Sketch 52.6 (67491) - http://www.bohemiancoding.com/sketch -->
    <title>clock</title>
    <desc>Created with Sketch.</desc>
    <g id="Page-1" stroke="none" stroke-width="1" fill="none" fill-rule="evenodd">
        <g id="details-page-joined" transform="translate(-935.000000, -400.000000)" fill="#5E60FF">
            <g id="Group-3" transform="translate(-1.000000, 0.000000)">
                <g id="s1" transform="translate(121.000000, 279.000000)">
                    <g id="details" transform="translate(815.000000, 120.000000)">
                        <g id="line-det">
                            <g id="clock" transform="translate(0.000000, 1.000000)">
                                <path d="M7.48807432,0 C3.35922297,0 0,3.35922297 0,7.48807432 C0,11.6169257 3.35922297,14.9761486 7.48807432,14.9761486 C11.6169257,14.9761486 14.9761486,11.6169257 14.9761486,7.48807432 C14.9761486,3.35922297 11.6169257,0 7.48807432,0 Z M7.48807432,14.0401351 C3.8752027,14.0401351 0.936013514,11.1009459 0.936013514,7.48807432 C0.936013514,3.8752027 3.8752027,0.936013514 7.48807432,0.936013514 C11.1009459,0.936013514 14.0401351,3.8752027 14.0401351,7.48807432 C14.0401351,11.1009459 11.1009459,14.0401351 7.48807432,14.0401351 Z" id="Shape" fill-rule="nonzero"></path>
                                <polygon id="Path" points="7.95608108 2.80804054 7.02006757 2.80804054 7.02006757 7.68185811 9.9652027 10.6269932 10.6269932 9.9652027 7.95608108 7.29429054"></polygon>
                            </g>
                        </g>
                    </g>
                </g>
            </g>
        </g>
    </g>
</svg>