<?xml version="1.0" encoding="UTF-8"?>
<svg width="13px" height="16px" viewBox="0 0 13 16" version="1.1" xmlns="http://www.w3.org/2000/svg" xmlns:xlink="http://www.w3.org/1999/xlink">
    <!-- Generator: Sketch 52.6 (67491) - http://www.bohemiancoding.com/sketch -->
    <title>icon-location</title>
    <desc>Created with Sketch.</desc>
    <g id="Page-1" stroke="none" stroke-width="1" fill="none" fill-rule="evenodd">
        <g id="details-page-joined" transform="translate(-935.000000, -588.000000)" fill="#5E60FF" fill-rule="nonzero">
            <g id="Group-3" transform="translate(-1.000000, 0.000000)">
                <g id="s1" transform="translate(121.000000, 279.000000)">
                    <g id="details" transform="translate(815.000000, 120.000000)">
                        <g id="line-det-copy-5" transform="translate(0.000000, 188.000000)">
                            <g id="icon-location" transform="translate(0.000000, 1.000000)">
                                <path d="M6.19291638,0 C2.78800299,0 0.0179163837,2.59943736 0.0179163837,5.79456219 C0.0179163837,9.75981197 5.54393646,15.5810304 5.77921166,15.8269054 C6.00020052,16.0578741 6.38603187,16.0574679 6.6066211,15.8269054 C6.84189631,15.5810304 12.3679164,9.75981197 12.3679164,5.79456219 C12.3678498,2.59943736 9.59779647,0 6.19291638,0 Z M6.19291638,14.6790305 C4.33312668,12.6059681 1.12992057,8.51599954 1.12992057,5.79462469 C1.12992057,3.17481233 3.40115049,1.04349994 6.19291638,1.04349994 C8.98468228,1.04349994 11.2559122,3.17481233 11.2559122,5.79459344 C11.2558789,8.51609329 8.05317231,12.6053118 6.19291638,14.6790305 Z" id="Shape"></path>
                                <path d="M6.37240173,3.70002174 C4.83428823,3.70002174 3.5829751,5.00503244 3.5829751,6.60911265 C3.5829751,8.21319285 4.83431813,9.51820356 6.37240173,9.51820356 C7.91048534,9.51820356 9.16179847,8.21319285 9.16179847,6.60911265 C9.16179847,5.00503244 7.91048534,3.70002174 6.37240173,3.70002174 Z M6.37240173,8.47696398 C5.38480621,8.47696398 4.58139441,7.63906423 4.58139441,6.60911265 C4.58139441,5.57916107 5.38483611,4.74126131 6.37240173,4.74126131 C7.35996736,4.74126131 8.16340906,5.57916107 8.16340906,6.60911265 C8.16340906,7.63906423 7.35996736,8.47696398 6.37240173,8.47696398 Z" id="Shape"></path>
                            </g>
                        </g>
                    </g>
                </g>
            </g>
        </g>
    </g>
</svg>