<?xml version="1.0" encoding="UTF-8"?>
<svg width="19px" height="20px" viewBox="0 0 19 20" version="1.1" xmlns="http://www.w3.org/2000/svg" xmlns:xlink="http://www.w3.org/1999/xlink">
    <!-- Generator: Sketch 52.6 (67491) - http://www.bohemiancoding.com/sketch -->
    <title>search</title>
    <desc>Created with Sketch.</desc>
    <g id="Page-1" stroke="none" stroke-width="1" fill="none" fill-rule="evenodd">
        <g id="search-results" transform="translate(-327.000000, -136.000000)" fill="#5E60FF" fill-rule="nonzero">
            <g id="Group-3" transform="translate(-1.000000, 0.000000)">
                <g id="hero">
                    <g id="Search" transform="translate(121.000000, 122.000000)">
                        <g id="Group-15">
                            <g id="form-group" transform="translate(183.000000, 4.000000)">
                                <g id="search" transform="translate(24.000000, 10.000000)">
                                    <path d="M18.8839961,18.6995313 L13.3646445,12.8896875 C14.4115,11.5292578 15.0416543,9.79972656 15.0416543,7.91667969 C15.0416543,3.55144531 11.6677812,0 7.52080859,0 C3.37383594,0 0,3.55144531 0,7.91667969 C0,12.2819141 3.37387305,15.8333594 7.5208457,15.8333594 C9.30974023,15.8333594 10.9527949,15.17 12.2452031,14.0680859 L17.7645547,19.8779297 C17.9191895,20.040625 18.169752,20.040625 18.3243867,19.8779297 L18.8840332,19.2887891 C19.0385937,19.1260547 19.0385937,18.8622266 18.8839961,18.6995313 Z M7.5208457,14.1666797 C4.24672266,14.1666797 1.5833457,11.363125 1.5833457,7.91667969 C1.5833457,4.47023437 4.24672266,1.66667969 7.5208457,1.66667969 C10.7949688,1.66667969 13.4583457,4.47023437 13.4583457,7.91667969 C13.4583457,11.363125 10.7949688,14.1666797 7.5208457,14.1666797 Z" id="Shape"></path>
                                </g>
                            </g>
                        </g>
                    </g>
                </g>
            </g>
        </g>
    </g>
</svg>