<?xml version="1.0" encoding="UTF-8"?>
<svg width="44px" height="45px" viewBox="0 0 44 45" version="1.1" xmlns="http://www.w3.org/2000/svg" xmlns:xlink="http://www.w3.org/1999/xlink">
    <!-- Generator: Sketch 52.6 (67491) - http://www.bohemiancoding.com/sketch -->
    <title>entrepreneur</title>
    <desc>Created with Sketch.</desc>
    <defs>
        <linearGradient x1="100%" y1="86.2326389%" x2="17.6909722%" y2="20.2170139%" id="linearGradient-1">
            <stop stop-color="#EA4BFF" offset="0%"></stop>
            <stop stop-color="#6C63FF" offset="33.9030889%"></stop>
            <stop stop-color="#3347FF" offset="68.7838692%"></stop>
            <stop stop-color="#3279FF" offset="100%"></stop>
        </linearGradient>
    </defs>
    <g id="Page-1" stroke="none" stroke-width="1" fill="none" fill-rule="evenodd">
        <g id="homepage-v1" transform="translate(-852.000000, -3613.000000)" fill="url(#linearGradient-1)" fill-rule="nonzero">
            <g id="Group-12" transform="translate(0.000000, 3085.000000)">
                <g id="find-experience-icond" transform="translate(0.000000, 496.000000)">
                    <g id="Group-4-Copy" transform="translate(735.000000, 0.000000)">
                        <g id="entrepreneur" transform="translate(117.000000, 32.000000)">
                            <path d="M11.9544,7.26180258 C11.6231,7.26180258 11.4,6.94167811 11.4,6.60753433 L11.4,1.5485794 C11.390691,1.30784419 11.5286667,1.08597274 11.7476,0.989622318 C11.9644449,0.895835757 12.2162582,0.948151905 12.3787,1.1207382 L14.5168,3.27678755 C17.5985808,0.733871442 21.5917215,-0.398575253 25.5358844,0.151797356 C29.4800472,0.702169965 33.0183348,2.88556004 35.2998,6.1768691 C35.4903382,6.45064708 35.4247479,6.82837558 35.1533,7.02054934 C34.881852,7.2127231 34.5073382,7.14656981 34.3168,6.87279185 C32.2385246,3.87469776 29.0210989,1.87954069 25.4304927,1.36230594 C21.8398864,0.845071189 18.1973287,1.85203251 15.37,4.14346352 L17.3943,6.191897 C17.5646582,6.37109671 17.6153588,6.63422611 17.5239444,6.8647346 C17.4325301,7.09524309 17.2158967,7.25052612 16.97,7.26180258 L11.9544,7.26180258 Z M12.6,3.00951288 L12.6,6.05150215 L15.5218,6.05150215 L14.0909,4.57806223 C14.0731,4.56212661 14.0615,4.52077468 14.0452,4.5023176 C14.0441,4.50120815 14.055,4.50009871 14.0541,4.49909013 L12.6,3.00951288 Z M34.8,37.7381974 C35.1313,37.7381974 35.4,38.0583219 35.4,38.3924657 L35.4,43.4514206 C35.3999886,43.6961852 35.2537881,43.9168409 35.0295736,44.0104934 C34.805359,44.1041458 34.5472872,44.0523512 34.3757,43.8792618 L32.2376,41.7227082 C29.1558192,44.2656243 25.1626785,45.398071 21.2185156,44.8476984 C17.2743528,44.2973257 13.7360652,42.1139357 11.4546,38.8226266 C11.3314327,38.6455233 11.3113008,38.4156001 11.4017877,38.2194668 C11.4922747,38.0233336 11.6796335,37.8907876 11.8932877,37.8717576 C12.106942,37.8527277 12.3144327,37.9501049 12.4376,38.1272082 C14.515876,41.1253948 17.7333618,43.1206164 21.324044,43.6378539 C24.9147262,44.1550914 28.5573551,43.1480689 31.3847,40.8565365 L29.3599,38.808103 C29.1895513,38.6289168 29.1388427,38.3658095 29.2302325,38.1353087 C29.3216222,37.904808 29.5382213,37.7495111 29.7841,37.7381974 L34.8,37.7381974 Z M34.2,41.9904871 L34.2,38.9484979 L31.2327,38.9484979 L32.6692,40.4219378 C32.687,40.4378734 32.7044,40.4792253 32.7206,40.4976824 L32.7231,40.5009099 L34.2,41.9904871 Z M16.65,36.6201717 C16.9813,36.6201717 17.2,36.3213283 17.2,35.9871845 L17.2,31.5516352 C17.2,31.5347918 17.2243,31.5180494 17.2229,31.501206 C17.1157934,30.1985193 16.346207,29.0451698 15.19,28.4545773 C15.169,28.4444914 15.1772,28.4344056 15.1551,28.4266395 L12.9,27.5949614 L12.9,26.8194614 C12.8904674,26.5926117 12.7602787,26.3886147 12.5595,26.2859206 C12.5416,26.2758348 12.5112,26.2686738 12.4927,26.2609077 L12.4872,26.2598991 L11.3186,25.775779 C13.4717444,24.779378 14.9131825,22.6762266 15.0766,20.2926137 C16.0030405,19.8779927 16.5016348,18.8532922 16.26,17.860515 C16.137882,17.3452192 15.7870104,16.9154984 15.309,16.6958026 L15.4144,15.153779 C15.6123772,12.2593911 13.9817698,9.55290614 11.3434446,8.39680011 C8.70511943,7.24069407 5.63086628,7.88552353 3.6683,10.0066738 C2.37608659,11.3907931 1.71891827,13.2582211 1.8568,15.1542833 L1.9621,16.6941888 C1.48202909,16.9132795 1.12947931,17.3440742 1.0072,17.8610193 C0.766551773,18.8548134 1.26658455,19.8796947 2.1941,20.2937232 C2.35751161,22.6806991 3.80345139,24.7858947 5.9617,25.7791073 L4.8187,26.2539485 L4.8211,26.26 C4.8019,26.267867 4.7591,26.2759356 4.7405,26.2859206 C4.53972128,26.3886147 4.40953258,26.5926117 4.4,26.8194614 L4.4,27.5949614 L2.1384,28.4266395 C2.12012289,28.4347234 2.10241496,28.4440577 2.0854,28.4545773 C0.921549361,29.0421472 0.141020248,30.194197 0.0212,31.5013069 C0.0198,31.5180494 0,31.5347918 0,31.5517361 L0,35.9872854 C0.0212423336,36.3362946 0.303427703,36.6110503 0.65,36.6201717 L6.5469,36.6201717 L8.22,38.8557983 C8.33588421,39.0036766 8.5122714,39.0902278 8.69915648,39.090915 C8.88604156,39.0916022 9.06304978,39.0063504 9.18,38.8593283 L10.8525,36.6201717 L16.65,36.6201717 Z M10.18,31.0054871 C10.2644401,31.0469962 10.3574867,31.0675702 10.4514,31.0654979 C10.6407695,31.0642381 10.8185404,30.9732823 10.9314,30.8199077 L12.473,28.7450494 L13.6718,29.1805558 C13.0599318,29.8058649 12.6832341,30.6266773 12.6065,31.5018112 C12.6052,31.5184528 12.6,31.5348927 12.6,31.5516352 L12.6,35.4098712 L10.9874,35.4098712 L10.18,31.0054871 Z M4.7,35.4098712 L4.7,31.5516352 C4.7,31.5347918 4.7028,31.5180494 4.7014,31.501206 C4.62681001,30.6245814 4.25079835,29.8018143 3.6384,29.1752103 L4.8261,28.743133 L6.3681,30.8162768 C6.55919512,31.0733738 6.91619335,31.1350153 7.1812,30.9566717 L7.2338,30.9352897 L6.4122,35.4098712 L4.7,35.4098712 Z M9.7316,29.2420794 L11.4727,28.0714163 L10.312,29.6323004 L9.7316,29.2420794 Z M10,27.5910279 L8.6474,28.5147897 L7.3,27.5944571 L7.3,26.2186481 C7.73744501,26.3172603 8.18446494,26.3661452 8.6327,26.3643884 C9.09282873,26.3668014 9.55167557,26.3152529 10,26.2107811 L10,27.5910279 Z M7.5684,29.2420794 L6.9884,29.6323004 L5.8273,28.0714163 L7.5684,29.2420794 Z M16,31.5781609 L16,35.4098712 L13.8,35.4098712 L13.8,31.5781609 C13.9,30.8116373 14.27,30.1142017 14.9,29.6921094 C15.53,30.1142017 16,30.8107296 16,31.5781609 Z M4.5455,10.832603 C6.16156512,9.08643884 8.69268364,8.55577789 10.864833,9.50772499 C13.0369825,10.4596721 14.3794848,12.6879521 14.2166,15.0709742 L14.1506,16.0357854 L13.6648,14.0161974 C13.657096,13.9839452 13.6467264,13.9524007 13.6338,13.9218948 C13.17348,12.8403195 12.1414901,12.1185787 10.9758,12.0629742 L10.4039,12.0374571 C10.2005988,12.028769 10.0067093,12.1242694 9.8885,12.2913176 C8.82685146,13.7952282 7.04336506,14.6045164 5.2233,14.4082339 L4.2619,14.3039464 C4.03635218,14.2794184 3.81055729,14.3479436 3.63588163,14.4939329 C3.46120597,14.6399222 3.3525024,14.8509621 3.3345,15.0790429 L3.1866,16.9455279 L3.182,16.9438133 L3.054,15.0709742 C2.94042082,13.5098177 3.48150681,11.9722225 4.5455,10.832603 Z M3.38,19.8442983 C3.38000574,19.5503906 3.17062955,19.2989734 2.8836,19.2482253 C2.4575514,19.1732939 2.14692372,18.7997854 2.1479,18.3635966 C2.14786023,18.2912228 2.15638723,18.2191031 2.1733,18.1487682 C2.20001588,18.0307753 2.26755763,17.9262508 2.3638,17.8539592 C2.42867388,17.9113866 2.50019262,17.9606941 2.5768,18.000809 C2.5934,18.009382 2.6104,18.0172489 2.6277,18.0242082 C3.5029,18.3779185 3.7665,18.4203798 4.0377,18.2509378 C4.20270002,18.1473998 4.30939649,17.9712253 4.3254,17.7758948 L4.502,15.5469249 L5.0958,15.6113734 C7.22960248,15.8413051 9.33172579,14.9543029 10.6675,13.2603648 L10.9237,13.2717618 C11.611826,13.3046963 12.2243592,13.7217694 12.5119,14.3531652 L13.4147,18.1064077 C13.4649766,18.3153651 13.6214141,18.4817218 13.8256445,18.543409 C14.029875,18.6050961 14.2512223,18.552848 14.4071,18.4061588 L14.9003,17.9422103 C14.9171,17.9263755 14.9323,17.9093305 14.9481,17.8927897 C15.0207967,17.9617227 15.0716917,18.0507727 15.0944,18.1487682 C15.1528795,18.3898817 15.1100119,18.6446501 14.975938,18.8528058 C14.841864,19.0609615 14.6284932,19.2040145 14.3863,19.2481245 C14.0985287,19.3036902 13.890577,19.5577625 13.891,19.8532747 C13.8885423,22.7807216 11.5335825,25.1518768 8.63105,25.1493981 C5.7285175,25.1469193 3.37754233,22.7717452 3.38,19.8442983 Z M1.2,31.5781609 C1.29416851,30.8096788 1.71356468,30.1199376 2.35,29.6868648 C2.98636724,30.1200033 3.40574253,30.8097102 3.5,31.5781609 L3.5,35.4098712 L1.2,35.4098712 L1.2,31.5781609 Z M8.7,36.4702055 L7.5362,35.1141931 L8.627,29.9831465 L8.65,29.9697725 L8.7881,30.0502784 L9.8632,35.1145428 L8.7,36.4702055 Z M41.4107,12.6894056 L41.4104,12.6896073 C44.6659694,15.7945203 44.8102969,20.9730986 41.7328,24.2575579 C41.6255,24.3717296 41.5138,24.4840858 41.4006,24.5913991 C40.4975644,25.4744188 40.0277133,26.7148759 40.117,27.9802403 L40.117,27.9829635 L40.1725,29.0466159 C40.1732,29.0522639 40.1732,29.0567017 40.1732,29.0623498 C40.1786191,29.272963 40.1002767,29.4770105 39.9556333,29.6290151 C39.8109899,29.7810196 39.6120671,29.8683479 39.4032,29.8715365 C39.3952,29.8717382 39.378,29.8626609 39.37,29.8626609 L39.2,29.8626609 L39.2,31.6951567 C39.2078672,32.2540994 38.9914504,32.7925289 38.5999004,33.1881616 C38.2083504,33.5837943 37.6748992,33.8030515 37.1207,33.7961373 L34.5793,33.7961373 C34.0251008,33.8030515 33.4916496,33.5837943 33.1000996,33.1881616 C32.7085496,32.7925289 32.4921328,32.2540994 32.5,31.6951567 L32.5,29.8626609 L32.2433,29.8626609 C32.0035969,29.8652665 31.7773769,29.7510542 31.6358,29.5559506 C31.5186551,29.3958865 31.474151,29.1932944 31.5133,28.9983047 L31.5926,28.3851867 C31.7939525,26.9841457 31.3137467,25.5710726 30.3026,24.5891803 C28.5916639,22.9637235 27.6629397,20.6703229 27.7564,18.3015687 C27.9055,14.1819077 31.2373,10.7408219 35.3416,10.4685043 C37.5827814,10.3256646 39.7817492,11.1303458 41.4107,12.6894056 Z M37.1207,32.5858369 C37.584,32.5858369 37.9677,32.2832618 38.0334,31.8798283 L33.6666,31.8798283 C33.7323,32.2832618 34.116,32.5858369 34.5793,32.5858369 L37.1207,32.5858369 Z M38,30.6695279 L38,29.8626609 L33.7,29.8626609 L33.7,30.6695279 L38,30.6695279 Z M35.85,23.3956223 C36.2373944,23.3951776 36.5513142,23.0785181 36.5517,22.6877983 C36.5517,22.401501 36.3807011,22.1433963 36.1184441,22.0338445 C35.8561872,21.9242927 35.5543226,21.9848696 35.3536171,22.1873268 C35.1529116,22.3897839 35.0928932,22.6942482 35.20155,22.9587407 C35.3102069,23.2232332 35.5661393,23.3956631 35.85,23.3956223 Z M42.3128,21.080015 L42.3132,21.080015 C43.13229,18.8681753 42.7865021,16.3885678 41.3942634,14.4904205 C40.0020247,12.5922732 37.7523053,11.5332238 35.4156,11.6759807 C31.9222,11.9073498 29.0825,14.8372854 28.9556,18.3465515 C28.8751738,20.3658887 29.6675071,22.321058 31.1273,23.7054592 C32.4188673,24.9533798 33.0348622,26.7526809 32.7819,28.5384914 L32.766,28.6523605 L35.2,28.6523605 L35.2,24.5070815 C34.4421114,24.2248109 33.9331289,23.5029967 33.9175,22.6883026 C33.9275391,21.6260287 34.784219,20.7702307 35.8375,20.770279 C36.3403905,20.7713455 36.8221969,20.9741682 37.1766205,21.3339993 C37.5310441,21.6938303 37.728959,22.1810994 37.7267,22.6883026 C37.7328809,23.5240777 37.1929464,24.2642763 36.4,24.5070815 L36.4,28.6523605 L38.9516,28.6523605 L38.9191,28.0390408 C38.8098104,26.4199224 39.4170566,24.8351156 40.5775,23.7109056 C40.6751,23.6184185 40.7702,23.5227039 40.8616,23.4253755 C41.4968042,22.7499827 41.9903836,21.9522832 42.3128,21.080015 Z" id="Shape"></path>
                        </g>
                    </g>
                </g>
            </g>
        </g>
    </g>
</svg>