<?xml version="1.0" encoding="UTF-8"?>
<svg width="47px" height="47px" viewBox="0 0 47 47" version="1.1" xmlns="http://www.w3.org/2000/svg" xmlns:xlink="http://www.w3.org/1999/xlink">
    <!-- Generator: Sketch 52.6 (67491) - http://www.bohemiancoding.com/sketch -->
    <title>meeting</title>
    <desc>Created with Sketch.</desc>
    <defs>
        <linearGradient x1="100%" y1="86.2326389%" x2="17.6909722%" y2="20.2170139%" id="linearGradient-1">
            <stop stop-color="#EA4BFF" offset="0%"></stop>
            <stop stop-color="#6C63FF" offset="33.9030889%"></stop>
            <stop stop-color="#3347FF" offset="68.7838692%"></stop>
            <stop stop-color="#3279FF" offset="100%"></stop>
        </linearGradient>
    </defs>
    <g id="Page-1" stroke="none" stroke-width="1" fill="none" fill-rule="evenodd">
        <g id="homepage-v1" transform="translate(-543.000000, -3612.000000)" fill-rule="nonzero" stroke="url(#linearGradient-1)" stroke-width="1.5">
            <g id="Group-12" transform="translate(0.000000, 3085.000000)">
                <g id="find-experience-icond" transform="translate(0.000000, 496.000000)">
                    <g id="Group-4-Copy" transform="translate(427.000000, 0.000000)">
                        <g id="meeting" transform="translate(117.000000, 32.000000)">
                            <path d="M42.400868,33.0421387 L44.9587507,43.3619731 C45.1363777,44.0674938 44.7064165,44.7832981 43.9995996,44.9597003 C43.2985835,45.1370693 42.5789346,44.7115771 42.4019227,44.000519 L41.3333478,39.7261723 L30.2480472,39.7261723 L29.1003706,43.0027525 C28.7096087,44.5604003 27.1693244,45.2463209 25.9023802,44.9197967 C24.4934925,44.568135 23.6317243,43.1379326 23.984166,41.7230238 L27.939071,29.7686348 C28.232538,28.5932356 29.2844137,27.7731017 30.4971294,27.7731017 C31.4510949,27.7731017 32.1796208,27.7731017 33.1337621,27.7731017 C33.8617606,27.7731017 34.4520345,27.1828093 34.4520345,26.4547878 C34.4520345,25.7267663 33.8618485,25.1364738 33.1337621,25.1364738 C31.7307631,25.1364738 30.5590045,25.1364738 29.178857,25.1364738 C27.7225963,25.1364738 26.5422244,23.9559768 26.5422244,22.499758 C26.5422244,21.0435392 27.7226841,19.8630422 29.178857,19.8630422 L36.4388913,19.8630422 L37.3668412,17.3666923 C37.805943,16.489955 38.7263343,15.9234817 39.7563252,15.9234817 C40.9343241,15.9350837 41.9963951,16.7706867 42.283534,17.9048639 L44.9201666,29.7700411 C45.3324618,31.4219107 44.0961915,33.0173527 42.400868,33.0421387 Z M7.91124478,6.67963901 C10.0920764,6.67963901 11.8661498,8.45376843 11.8661498,10.6346688 C11.8661498,12.8155691 10.0920764,14.5896985 7.91124478,14.5896985 C5.7304132,14.5896985 3.95633972,12.8155691 3.95633972,10.6346688 C3.95633972,8.45368054 5.7304132,6.67963901 7.91124478,6.67963901 Z M31.1717783,37.0896323 L32.5571992,33.0379198 C33.9490361,33.0379198 37.2363235,33.0379198 39.7504365,33.0379198 C39.7504365,33.1440951 39.7382197,33.2493914 39.765378,33.3572367 L40.6743434,37.0896323 L31.1717783,37.0896323 Z M21.0158338,41.7231996 C21.3681876,43.1381084 20.5065073,44.5683108 19.0976196,44.9198846 C17.8305875,45.2464088 16.2903911,44.5604882 15.8996292,43.0028404 L14.7518647,39.7262602 L3.66665202,39.7262602 L2.59807707,44.0006069 C2.42106523,44.711665 1.70150419,45.1371572 1.00040019,44.9597882 C0.293583303,44.783386 -0.13637793,44.0675817 0.0412491453,43.362061 L2.59921965,33.0421387 C0.903808331,33.0173527 -0.332462048,31.4218228 0.0798331562,29.770129 L2.71646582,17.9050397 C3.00360469,16.7708625 4.06576362,15.9352594 5.24367459,15.9236575 C6.27366553,15.9236575 7.19414468,16.4900429 7.63315865,17.3668681 L8.5611085,19.863218 L15.8210549,19.863218 C17.2773157,19.863218 18.4576876,21.043715 18.4576876,22.4999338 C18.4576876,23.9561526 17.2772278,25.1366496 15.8210549,25.1366496 C14.4408196,25.1366496 13.2691488,25.1366496 11.8661498,25.1366496 C11.1381513,25.1366496 10.5478774,25.7269421 10.5478774,26.4549636 C10.5478774,27.1829851 11.1380634,27.7732775 11.8661498,27.7732775 C12.8202911,27.7732775 13.5486412,27.7732775 14.5027825,27.7732775 C15.7154982,27.7732775 16.767286,28.5934114 17.0608409,29.7688106 L21.0158338,41.7231996 Z M4.32574427,37.0896323 L13.8283094,37.0896323 L12.4428885,33.0467091 C11.0509637,33.0467091 7.76367632,33.0467091 5.24965116,33.0467091 C5.24965116,33.1529723 5.26186796,33.2581808 5.23470974,33.366026 L4.32574427,37.0896323 Z M27.8617272,0 C30.0425588,0 31.8166323,1.86202288 31.8166323,4.04292321 L31.8166323,6.67963901 C31.8166323,8.39839555 30.714571,9.86480998 29.1799996,10.4093978 L29.1799996,14.5896985 C29.1799996,15.1226844 28.8593744,15.6042527 28.3663076,15.8076381 C27.8802721,16.0104962 27.3101253,15.9023873 26.9295586,15.5218086 L21.9546821,10.6346688 L17.1394152,10.6346688 C14.9585836,10.6346688 13.1845101,8.86053935 13.1845101,6.67963901 L13.1845101,4.04292321 C13.1845101,1.86202288 14.9585836,0 17.1394152,0 L27.8617272,0 Z M37.0889308,6.67963901 C39.2697624,6.67963901 41.0438359,8.45376843 41.0438359,10.6346688 C41.0438359,12.8155691 39.2697624,14.5896985 37.0889308,14.5896985 C34.9080992,14.5896985 33.1340257,12.8155691 33.1340257,10.6346688 C33.1340257,8.45376843 34.9080992,6.67963901 37.0889308,6.67963901 Z" id="Shape"></path>
                        </g>
                    </g>
                </g>
            </g>
        </g>
    </g>
</svg>