<?xml version="1.0" encoding="UTF-8"?>
<svg width="41px" height="43px" viewBox="0 0 41 43" version="1.1" xmlns="http://www.w3.org/2000/svg" xmlns:xlink="http://www.w3.org/1999/xlink">
    <!-- Generator: Sketch 52.6 (67491) - http://www.bohemiancoding.com/sketch -->
    <title>graphic</title>
    <desc>Created with Sketch.</desc>
    <defs>
        <linearGradient x1="100%" y1="86.2326389%" x2="17.6909722%" y2="20.2170139%" id="linearGradient-1">
            <stop stop-color="#EA4BFF" offset="0%"></stop>
            <stop stop-color="#6C63FF" offset="33.9030889%"></stop>
            <stop stop-color="#3347FF" offset="68.7838692%"></stop>
            <stop stop-color="#3279FF" offset="100%"></stop>
        </linearGradient>
    </defs>
    <g id="Page-1" stroke="none" stroke-width="1" fill="none" fill-rule="evenodd">
        <g id="homepage-v1" transform="translate(-1160.000000, -3615.000000)" fill="url(#linearGradient-1)">
            <g id="Group-12" transform="translate(0.000000, 3085.000000)">
                <g id="find-experience-icond" transform="translate(0.000000, 496.000000)">
                    <g id="Group-4-Copy" transform="translate(1042.000000, 0.000000)">
                        <g id="graphic" transform="translate(118.000000, 34.000000)">
                            <path d="M40.1926269,41.0954401 L38.3383006,41.0954401 L38.3383006,14.4949965 C38.3383006,13.2568711 37.3186874,12.2496152 36.0655609,12.2496152 L31.9208249,12.2496152 C30.6676138,12.2496152 29.6480851,13.2569546 29.6480851,14.4949965 L29.6480851,41.0954401 L24.9396028,41.0954401 L24.9396028,26.5470696 C24.9396028,25.3089442 23.9200742,24.3016882 22.6668631,24.3016882 L18.5221271,24.3016882 C17.268916,24.3016882 16.2493874,25.3090277 16.2493874,26.5470696 L16.2493874,41.0954401 L11.5409051,41.0954401 L11.5409051,33.5609419 C11.5409051,32.3228165 10.5212919,31.3155606 9.26816534,31.3155606 L5.12334481,31.3155606 C3.8701337,31.3155606 2.85060508,32.3229 2.85060508,33.5609419 L2.85060508,41.0954401 L0.896261957,41.0954401 C0.429319707,41.0954401 0.0508115684,41.4693919 0.0508115684,41.9307132 C0.0508115684,42.3920346 0.429319707,42.7659864 0.896261957,42.7659864 L40.1926269,42.7659864 C40.6595692,42.7659864 41.0380773,42.3920346 41.0380773,41.9307132 C41.0380773,41.4693919 40.6595692,41.0954401 40.1926269,41.0954401 Z M9.84983521,41.0954401 L4.54142131,41.0954401 L4.54142131,33.5609419 C4.54142131,33.2439558 4.80241184,32.9861069 5.12326027,32.9861069 L9.26799625,32.9861069 C9.58884467,32.9861069 9.84983521,33.2439558 9.84983521,33.5609419 L9.84983521,41.0954401 Z M23.2486175,41.0954401 L17.9402036,41.0954401 L17.9402036,26.5470696 C17.9402036,26.2300834 18.2011941,25.9722346 18.5220426,25.9722346 L22.6667786,25.9722346 C22.9875424,25.9722346 23.2486175,26.2300834 23.2486175,26.5470696 L23.2486175,41.0954401 Z M36.6473998,41.0954401 L31.3389859,41.0954401 L31.3389859,14.4949965 C31.3389859,14.1780103 31.5999765,13.9201615 31.9208249,13.9201615 L36.0655609,13.9201615 C36.3864093,13.9201615 36.6473998,14.1780103 36.6473998,14.4949965 L36.6473998,41.0954401 Z" id="Shape" fill-rule="nonzero"></path>
                            <path d="M38.3362715,0.878373267 C38.3481078,0.650427219 38.2669446,0.418638914 38.0907527,0.244567985 C37.9145609,0.0704970557 37.6799484,-0.00977269611 37.449225,0.00200465561 C37.4356132,0.00141996439 37.4221706,0 37.4083052,0 L32.2933303,0 C31.8263881,0 31.4478799,0.373951799 31.4478799,0.835273172 C31.4478799,1.29659454 31.8263881,1.67054634 32.2933303,1.67054634 L35.4516793,1.67054634 L27.0938104,9.92788987 L23.9419714,6.81399148 C23.7834494,6.65737776 23.5683668,6.56933997 23.3441534,6.56933997 C23.11994,6.56933997 22.9048574,6.65737776 22.7463354,6.81399148 L7.54775834,21.8296973 C7.21760997,22.1558715 7.21760997,22.6847664 7.54775834,23.0110241 C7.71287481,23.1739859 7.92922556,23.2555086 8.14557631,23.2555086 C8.36192707,23.2555086 8.57836237,23.1739859 8.74339428,23.0108571 L23.3441534,8.58577293 L26.4959925,11.6996713 C26.8261408,12.0258455 27.36148,12.0258455 27.6917129,11.6996713 L36.6473998,2.85187319 L36.6473998,5.67593178 C36.6473998,6.13725316 37.025908,6.51120496 37.4928502,6.51120496 C37.9597925,6.51120496 38.3383006,6.13725316 38.3383006,5.67593178 L38.3383006,0.918800489 C38.3383006,0.905185536 38.3368633,0.891904693 38.3362715,0.878373267 Z" id="Path"></path>
                            <ellipse id="Oval" cx="5.29590123" cy="25.3346706" rx="1" ry="1"></ellipse>
                        </g>
                    </g>
                </g>
            </g>
        </g>
    </g>
</svg>