<?xml version="1.0" encoding="UTF-8"?>
<svg width="40px" height="40px" viewBox="0 0 40 40" version="1.1" xmlns="http://www.w3.org/2000/svg" xmlns:xlink="http://www.w3.org/1999/xlink">
    <!-- Generator: Sketch 52.6 (67491) - http://www.bohemiancoding.com/sketch -->
    <title>arrow_forward-24px</title>
    <desc>Created with Sketch.</desc>
    <g id="Page-1" stroke="none" stroke-width="1" fill="none" fill-rule="evenodd">
        <g id="wallet" transform="translate(-428.000000, -286.000000)" fill="#5E60FF">
            <g id="Group-3" transform="translate(0.000000, 1.000000)">
                <g id="Group-5" transform="translate(120.000000, 231.000000)">
                    <g id="Group-4" transform="translate(34.000000, 29.000000)">
                        <g id="arrow_forward-24px" transform="translate(292.823223, 44.809334) scale(-1, 1) rotate(-135.000000) translate(-292.823223, -44.809334) translate(267.823223, 24.809334)">
                            <path d="M49.6948,18.65516 L34.0698076,0.357422727 C33.7706866,0.00953699689 33.3261556,-0.0964755184 32.9345542,0.0929060623 C32.544906,0.281144034 32.2916835,0.726693937 32.2916835,1.21981796 L32.2916835,3.65947814 C32.2916835,3.98346245 32.4015467,4.29326601 32.5968591,4.52198773 L43.3187288,17.077895 L1.04169871,17.077895 C0.465917741,17.0780094 0,17.6235107 0,18.2977823 L0,20.7374425 C0,21.4117141 0.465917741,21.9573298 1.04169871,21.9573298 L43.3187288,21.9573298 L32.5968591,34.5132371 C32.4015467,34.7419588 32.2916835,35.051648 32.2916835,35.3757467 L32.2916835,37.8154068 C32.2916835,38.3086452 32.5450036,38.7540808 32.9345542,38.9423187 C33.0637534,39.0054459 33.1990072,39.0352941 33.3332845,39.0352941 C33.6038898,39.0352941 33.8703936,38.9114413 34.0698076,38.6779164 L49.6948,20.3801792 C50.1017333,19.9036375 50.1017333,19.1317017 49.6948,18.65516 Z" id="Path"></path>
                        </g>
                    </g>
                </g>
            </g>
        </g>
    </g>
</svg>