<?xml version="1.0" encoding="UTF-8"?>
<svg width="16px" height="16px" viewBox="0 0 16 16" version="1.1" xmlns="http://www.w3.org/2000/svg" xmlns:xlink="http://www.w3.org/1999/xlink">
    <!-- Generator: Sketch 52.6 (67491) - http://www.bohemiancoding.com/sketch -->
    <title>baseline-person-24px</title>
    <desc>Created with Sketch.</desc>
    <g id="Page-1" stroke="none" stroke-width="1" fill="none" fill-rule="evenodd">
        <g id="register" transform="translate(-571.000000, -406.000000)">
            <g id="Group-3" transform="translate(-3.000000, -11.000000)">
                <g id="form" transform="translate(508.000000, 261.000000)">
                    <g id="Email-address-field" transform="translate(50.000000, 142.000000)">
                        <g id="baseline-person-24px" transform="translate(12.000000, 10.000000)">
                            <path d="M12,12 C14.21,12 16,10.21 16,8 C16,5.79 14.21,4 12,4 C9.79,4 8,5.79 8,8 C8,10.21 9.79,12 12,12 Z M12,14 C9.33,14 4,15.34 4,18 L4,20 L20,20 L20,18 C20,15.34 14.67,14 12,14 Z" id="Shape" fill="#5E60FF" fill-rule="nonzero"></path>
                            <polygon id="Path" points="0 0 24 0 24 24 0 24"></polygon>
                        </g>
                    </g>
                </g>
            </g>
        </g>
    </g>
</svg>