<?xml version="1.0" encoding="UTF-8"?>
<svg width="2599px" height="84px" viewBox="0 0 2599 84" version="1.1" xmlns="http://www.w3.org/2000/svg" xmlns:xlink="http://www.w3.org/1999/xlink">
    <!-- Generator: Sketch 52.6 (67491) - http://www.bohemiancoding.com/sketch -->
    <title>wave</title>
    <desc>Created with Sketch.</desc>
    <g id="Page-1" stroke="none" stroke-width="1" fill="none" fill-rule="evenodd">
        <g id="homepage-v1" transform="translate(0.000000, -415.000000)" fill="#FFFFFF" fill-rule="nonzero">
            <g id="Group-3" transform="translate(-3.000000, -11.000000)">
                <g id="hero">
                    <g id="wave" transform="translate(2.000000, 426.000000)">
                        <path d="M570.160376,50.0283982 C840.875836,50.8755421 1443.70956,87.5179595 1921.51528,80.7869252 C2240.05243,76.2995691 2462.04769,67.3752975 2587.50109,54.0141105 L2588,95 L1.06545904,91.9998583 L0,73.6052003 C199.629944,57.3225696 389.683403,49.4636356 570.160376,50.0283982 Z" id="shape"></path>
                        <path d="M569.210725,28.2126694 C839.977444,29.0698304 1443.92125,79.4294877 1921.81745,72.618862 C2240.41491,68.0784448 2464.14242,53.2054908 2593,28 L2588.42836,87 L1,85 L1,64.1897926 C199.296004,39.6336031 388.699579,27.6412287 569.210725,28.2126694 Z" id="shape-copy" opacity="0.497512091"></path>
                        <path d="M544.544954,0.328015486 C819.548299,1.65007738 1432.94188,79.3234471 1918.3156,68.8189227 C2241.89809,61.8159064 2469.12622,38.8762655 2600,0 L2595.35683,91 L3.15585031,87.7200694 L1,54.8639113 C180.02774,17.6252728 361.209391,-0.55335911 544.544954,0.328015486 Z" id="shape-copy-2" opacity="0.296758743"></path>
                    </g>
                </g>
            </g>
        </g>
    </g>
</svg>