<?xml version="1.0" encoding="UTF-8"?>
<svg width="1440px" height="84px" viewBox="0 0 1440 84" version="1.1" xmlns="http://www.w3.org/2000/svg" xmlns:xlink="http://www.w3.org/1999/xlink">
    <!-- Generator: Sketch 52.6 (67491) - http://www.bohemiancoding.com/sketch -->
    <title>wave1</title>
    <desc>Created with Sketch.</desc>
    <g id="Page-1" stroke="none" stroke-width="1" fill="none" fill-rule="evenodd">
        <g id="homepage-v1" transform="translate(0.000000, -415.000000)" fill="#FFFFFF" fill-rule="nonzero">
            <g id="Group-3" transform="translate(-3.000000, -11.000000)">
                <g id="hero">
                    <g id="wave1" transform="translate(-18.000000, 426.000000)">
                        <path d="M322,50 C474.927338,50.8501807 815.468499,87.6239509 1085.38126,80.8687878 C1265.3231,76.3653457 1390.72837,67.4090831 1461.59707,54 L1461.87891,95.1328125 L20.375,93.0235817 L19.1761475,71.8947139 C119.107157,56.7314509 220.048441,49.4332129 322,50 Z" id="shape"></path>
                        <path d="M321.4375,28.8242188 C474.364838,29.6743994 815.468499,79.6239509 1085.38126,72.8687878 C1265.3231,68.3653457 1391.68299,53.6135102 1464.46094,28.6132813 L1461.87891,87.1328125 L20.375,85.0235817 L19.1761475,63.8947139 C118.732157,39.9475967 219.485941,28.2574316 321.4375,28.8242188 Z" id="shape-copy" opacity="0.497512091"></path>
                        <path d="M307.247632,0.939564855 C462.608628,2.25464643 809.140551,79.5179103 1083.34865,69.0688485 C1266.15405,62.1028074 1394.52481,39.2842849 1468.46094,0.61328125 L1465.83782,91.1328125 L1.39407832,87.8701995 L0.176147492,55.1875179 C101.316473,18.1454948 203.673635,0.0628438073 307.247632,0.939564855 Z" id="shape-copy-2" opacity="0.296758743"></path>
                    </g>
                </g>
            </g>
        </g>
    </g>
</svg>